<svg xmlns="http://www.w3.org/2000/svg" xmlns:xlink="http://www.w3.org/1999/xlink" viewBox="0 0 44 44"><defs><style>.cls-1,.cls-2{fill:none;}.cls-1{clip-rule:evenodd;}.cls-3{fill:#d2ecf0;}.cls-4{fill:#9e7766;}.cls-5{fill:#bfc8ca;}.cls-6{fill:#e9eced;}.cls-7{fill:#d3d4d5;}.cls-8{fill:#f9fcfc;}.cls-9{fill:#009ed9;fill-rule:evenodd;}.cls-10{clip-path:url(#clip-path);}.cls-11{clip-path:url(#clip-path-2);}.cls-12{fill:#fff;}.cls-13{clip-path:url(#clip-path-3);}</style><clipPath id="clip-path"><path class="cls-1" d="M15.88,19.75a2.08,2.08,0,0,1-.44,1l-.26.31L15,20.67a2.05,2.05,0,0,1-.11-1.07L15.2,18a1.12,1.12,0,0,1,1-.29Z"/></clipPath><clipPath id="clip-path-2"><rect class="cls-2" x="-192.24" y="-26.26" width="375.65" height="86.19" transform="translate(-20.31 9.75) rotate(-80.67)"/></clipPath><clipPath id="clip-path-3"><rect class="cls-2" x="15.43" y="14.81" width="0.9" height="3.94" transform="translate(-3.25 29.73) rotate(-80.67)"/></clipPath></defs><title>getting-started</title><circle class="cls-3" cx="22.55" cy="23.47" r="20.01"/><path class="cls-4" d="M10.83,13.8A53.06,53.06,0,0,1,3.5,12.56c-.64-.29-1.74-.34-1.94.5s0,3.41,5.41,4.47Z"/><path class="cls-4" d="M13.9,8.82A60.15,60.15,0,0,1,6.7,4.57C6.15,4,5,3.53,4.47,4.32S3.11,7.91,8.36,11.19Z"/><path class="cls-4" d="M10.05,20.09a49.32,49.32,0,0,1-6.91,0c-.63-.17-1.64,0-1.7.75S2,23.93,7.08,24.08Z"/><path class="cls-5" d="M6.48,29.53l4.11-25,4.24.7-.63-4L11.49.75A1.93,1.93,0,0,0,9.27,2.34L4.53,31.19a1.94,1.94,0,0,0,1.59,2.22l13.49,2.21-.64-4Z"/><polygon class="cls-6" points="6.48 29.54 18.97 31.59 14.83 5.23 10.59 4.53 6.48 29.54"/><path class="cls-7" d="M21.89,34,26.63,5.19A1.93,1.93,0,0,0,25,3L14.2,1.19l.63,4,9.85,1.61-4.11,25L19,31.59l.64,4h.06A1.94,1.94,0,0,0,21.89,34Z"/><polygon class="cls-8" points="20.57 31.85 24.68 6.84 14.83 5.23 18.97 31.59 20.57 31.85"/><path class="cls-9" d="M16.3,14.22a4,4,0,1,0,3.33,4.63,4,4,0,0,0-3.33-4.63"/><g class="cls-10"><g class="cls-11"><rect class="cls-12" x="13.29" y="18.42" width="4.34" height="1.8" transform="translate(-6.1 31.45) rotate(-80.67)"/></g></g><g class="cls-13"><g class="cls-11"><rect class="cls-12" x="15.01" y="14.39" width="1.74" height="4.78" transform="translate(-3.25 29.73) rotate(-80.67)"/></g></g><path class="cls-4" d="M23.37,25c.31-1.88-.26-3.89-1.2-4.65-4.92-3.94-3.84-6.64-3.09-7.25s1.56-.06,2.19.5,5.47,4.35,6.68,5a11,11,0,0,1,1.44.77c1.88,1.48,3.52,4.21,4.89,8.24Z"/><path class="cls-4" d="M39.9,33.42c-1.68-.92-4.65-2.88-5.61-5.72a26.14,26.14,0,0,0-5.05-7.92L28,18.69a59.18,59.18,0,0,1-6.68-5c-.49-.62-1.56-1.23-2.19-.5s-1.76,3.4,3.09,7.26L17,34.87c3.32,4,10,3,10.87,3.25a27.28,27.28,0,0,1,3.92,3.12A20.08,20.08,0,0,0,39.9,33.42Z"/></svg>