<svg class="w2 h2 mr3" height="28" width="28" fill="none" viewBox="0 0 28 28" xmlns="http://www.w3.org/2000/svg"><path d="M20.484 14.643a5.514 5.514 0 012.625-4.626 5.643 5.643 0 00-4.446-2.403c-1.87-.197-3.684 1.119-4.637 1.119-.972 0-2.44-1.1-4.02-1.067a5.921 5.921 0 00-4.983 3.038c-2.154 3.73-.547 9.212 1.517 12.227 1.032 1.477 2.239 3.126 3.818 3.067 1.545-.064 2.122-.985 3.987-.985 1.848 0 2.39.985 4 .948 1.658-.027 2.703-1.483 3.7-2.973a12.21 12.21 0 001.69-3.445 5.327 5.327 0 01-3.251-4.9z" fill="#2F3033"></path><path d="M17.44 5.888A5.428 5.428 0 0018.683 2a5.522 5.522 0 00-3.573 1.849 5.164 5.164 0 00-1.274 3.744 4.566 4.566 0 003.606-1.705z" fill="#2F3033"></path></svg>