<svg xmlns="http://www.w3.org/2000/svg" xmlns:xlink="http://www.w3.org/1999/xlink" viewBox="0 0 44 44"><defs><style>.cls-1,.cls-2{fill:none;}.cls-1{clip-rule:evenodd;}.cls-3{clip-path:url(#clip-path);}.cls-4{clip-path:url(#clip-path-2);}.cls-5{fill:#d2ecf0;}.cls-6{fill:#80c4d5;}.cls-7{fill:#73b6c6;}.cls-8{fill:#ffce43;}.cls-9{fill:#f8ae27;}</style><clipPath id="clip-path"><path class="cls-1" d="M51.63,109.74a2,2,0,0,1-.39.87l-.23.27-.13-.33a1.91,1.91,0,0,1-.09-1l.24-1.45a1,1,0,0,1,.9-.25Z"/></clipPath><clipPath id="clip-path-2"><rect class="cls-2" x="51.23" y="105.37" width="0.79" height="3.48" transform="translate(-62.44 140.7) rotate(-80.67)"/></clipPath></defs><title>costs-payments</title><path class="cls-5" d="M29.19,37a18.77,18.77,0,0,1-5.31-.76c-.9,1.74-2.24,3.5-3.79,3.06-1.85-.52-1.8-3.56-1.53-5.67a13.92,13.92,0,0,1-2.79-2.79,11.74,11.74,0,0,1-1.39-2.26H11.09a1,1,0,0,1-1-1V20.83a1,1,0,0,1,1-1h3.12a13,13,0,0,1,4-5.18A10.86,10.86,0,0,0,16.67,11a10.21,10.21,0,0,1,3.89,2.11A18.27,18.27,0,0,1,29.19,11a17.78,17.78,0,0,1,10.59,3.35,20,20,0,1,0-4.3,23.9,10.44,10.44,0,0,1-1.28-1.91A18.6,18.6,0,0,1,29.19,37Z"/><path class="cls-6" d="M20.56,13.09A10.21,10.21,0,0,0,16.67,11a10.86,10.86,0,0,1,1.56,3.63,13,13,0,0,0-4,5.18H11.09a1,1,0,0,0-1,1v6.71a1,1,0,0,0,1,1h3.29a11.74,11.74,0,0,0,1.39,2.26C23.82,32.9,36.26,33.18,42,22.91a19.84,19.84,0,0,0-2.2-8.58A17.78,17.78,0,0,0,29.19,11,18.27,18.27,0,0,0,20.56,13.09Z"/><path class="cls-7" d="M42,23.47c0-.19,0-.37,0-.56-5.72,10.27-18.16,10-26.21,7.93a13.92,13.92,0,0,0,2.79,2.79c-.27,2.11-.32,5.15,1.53,5.67,1.55.44,2.89-1.32,3.79-3.06a18.86,18.86,0,0,0,10.32.08,10.44,10.44,0,0,0,1.28,1.91A20,20,0,0,0,42,23.47Z"/><circle class="cls-8" cx="30.35" cy="8.38" r="7.79"/><path class="cls-9" d="M24.59,8.78a5.94,5.94,0,0,0,11.85,0c0-.14,0-.27,0-.4a5.95,5.95,0,1,0-11.89,0C24.57,8.51,24.58,8.64,24.59,8.78Z"/><path class="cls-8" d="M31,4.87v.74a3.81,3.81,0,0,1,1.67.57l-.5.85A3.26,3.26,0,0,0,31,6.6V7.88c1,.15,1.74.58,1.72,1.49A1.76,1.76,0,0,1,31,11v.8h-.89v-.78a3.62,3.62,0,0,1-1.91-.67l.55-.85a3,3,0,0,0,1.36.55V8.79h0c-1-.16-1.69-.58-1.67-1.53a1.75,1.75,0,0,1,1.72-1.63V4.87Zm-.89,2.85V6.62c-.38.09-.61.29-.62.57S29.75,7.62,30.15,7.72ZM31,8.94v1.11c.36-.09.61-.28.62-.58S31.44,9,31,8.94Z"/><path class="cls-7" d="M17.25,20.3a2.12,2.12,0,0,1,.1-1.62,2.08,2.08,0,0,1,1.21-1.08,2.11,2.11,0,0,1,2.7,1.31l-1.14.4A.92.92,0,0,0,19,18.74a.89.89,0,0,0-.52.47.87.87,0,0,0,0,.69Z"/></svg>