<svg xmlns="http://www.w3.org/2000/svg" xmlns:xlink="http://www.w3.org/1999/xlink" viewBox="0 0 44 44"><defs><style>.cls-1,.cls-2{fill:none;}.cls-1{clip-rule:evenodd;}.cls-3{fill:#c08b2c;}.cls-4{fill:#d2ecf0;}.cls-5{fill:#5968e2;}.cls-6{fill:#fff;}.cls-7{fill:#c7ccd0;}.cls-8{fill:#bfa5f9;}.cls-9{fill:#9e7766;}.cls-10{fill:#ced6d8;}.cls-11{clip-path:url(#clip-path);}.cls-12{clip-path:url(#clip-path-2);}</style><clipPath id="clip-path"><path class="cls-1" d="M-30.45,19.75a2.08,2.08,0,0,1-.44,1l-.25.31-.15-.37a2.16,2.16,0,0,1-.1-1.07l.27-1.64a1.12,1.12,0,0,1,1-.29Z"/></clipPath><clipPath id="clip-path-2"><rect class="cls-2" x="-30.89" y="14.81" width="0.9" height="3.94" transform="translate(-42.06 -15.98) rotate(-80.67)"/></clipPath></defs><title>profile</title><path class="cls-3" d="M22,6.28a19.38,19.38,0,0,0-9.1,2.26H31.1A19.38,19.38,0,0,0,22,6.28Z"/><polygon class="cls-2" points="9.14 37.93 9.18 43.48 9.15 37.94 9.14 37.93"/><path class="cls-4" d="M37.58,35.15a19.95,19.95,0,0,0,0-25.07V35.15Z"/><path class="cls-4" d="M6.42,10.08a20,20,0,0,0,.17,25.29L6.42,14.06Z"/><path class="cls-4" d="M22,6.28a19.38,19.38,0,0,0-9.1,2.26H31.1A19.38,19.38,0,0,0,22,6.28Z"/><path class="cls-4" d="M22,2.6A20,20,0,0,0,11.15,5.81h21.7A20,20,0,0,0,22,2.6Z"/><polygon class="cls-4" points="8.96 11.3 9.14 37.93 9.15 37.94 8.96 8.54 8.96 11.3"/><path class="cls-5" d="M36.59,5.81H7.41a1,1,0,0,0-1,1l.17,28.56a19.9,19.9,0,0,0,2.55,2.56L9,8.54H35V37.77a20.28,20.28,0,0,0,2.54-2.62V6.81A1,1,0,0,0,36.59,5.81Z"/><path class="cls-6" d="M35,8.54H9l.19,29.4A20,20,0,0,0,35,37.77V8.54Z"/><path class="cls-7" d="M17.46,5.5h9.09a4,4,0,0,1,4,4v0a0,0,0,0,1,0,0H13.46a0,0,0,0,1,0,0v0A4,4,0,0,1,17.46,5.5Z"/><path class="cls-7" d="M22,0A2.89,2.89,0,0,0,19.11,2.9V7h5.78V2.9A2.89,2.89,0,0,0,22,0Zm0,4a1.06,1.06,0,1,1,1.06-1A1,1,0,0,1,22,4Z"/><path class="cls-4" d="M22,22.79a6.64,6.64,0,0,1,5.26,2.58,6.65,6.65,0,1,0-10.52,0A6.64,6.64,0,0,1,22,22.79Z"/><ellipse class="cls-8" cx="22" cy="25.37" rx="5.26" ry="2.59"/><circle class="cls-9" cx="22" cy="19.25" r="2.63"/><path class="cls-10" d="M30.14,33.75H13.86a.61.61,0,1,1,0-1.21H30.14a.61.61,0,1,1,0,1.21Z"/><path class="cls-10" d="M28.07,37.89H15.93a.61.61,0,1,1,0-1.21H28.07a.61.61,0,1,1,0,1.21Z"/></svg>