<svg xmlns="http://www.w3.org/2000/svg" viewBox="0 0 44 44"><defs><style>.cls-1{fill:#d2ecf0;}.cls-2{fill:#fff;}.cls-3{fill:#f2f4f3;}.cls-4{fill:#80c4d5;}.cls-5{fill:#c7ccd0;}.cls-6{fill:#ced6d8;}.cls-7{fill:#ffce43;}.cls-8{fill:#febe14;}.cls-9{fill:#f3ebdb;}.cls-10{fill:#5968e2;}.cls-11{fill:#bfc8ca;}</style></defs><title>projects</title><path class="cls-1" d="M10.57,39.84a20,20,0,1,1,30.24-9.31Z"/><path class="cls-2" d="M31.39,2.09l-28,8L12.2,40.87a20.14,20.14,0,0,0,9.07,2.57c.26,0,.52,0,.79,0h0c.74,0,1.47,0,2.18-.12.34,0,.67-.1,1-.16a19.9,19.9,0,0,0,4.69-1.33c.23-.1.45-.22.68-.33q1-.48,1.92-1a20.49,20.49,0,0,0,4.38-3.65c.44-.49.85-1,1.24-1.52a21,21,0,0,0,1.85-3Z"/><path class="cls-3" d="M32.23.59,1.91,9.25l8.75,30.66.77.5.77.46L3.41,10.08l28-8L40,32.27c.13-.27.27-.54.39-.82s.25-.62.37-.94Z"/><rect class="cls-4" x="8.71" y="10.31" width="19.21" height="4.58" transform="translate(-2.67 5.27) rotate(-15.28)"/><rect class="cls-5" x="10.74" y="20.76" width="3.03" height="3.03" transform="translate(-5.44 4.02) rotate(-15.28)"/><path class="cls-6" d="M17.06,21.57a.6.6,0,0,1-.16-1.19l15.22-4.17a.61.61,0,1,1,.32,1.17L17.22,21.55A.47.47,0,0,1,17.06,21.57Z"/><rect class="cls-5" x="12.46" y="27.08" width="3.03" height="3.03" transform="matrix(0.96, -0.26, 0.26, 0.96, -7.04, 4.69)"/><path class="cls-6" d="M18.77,27.89a.6.6,0,0,1-.58-.44.61.61,0,0,1,.42-.75l13.18-3.61a.62.62,0,0,1,.75.43.61.61,0,0,1-.43.74L18.93,27.87A.41.41,0,0,1,18.77,27.89Z"/><rect class="cls-5" x="14.17" y="33.76" width="3.03" height="3.03" transform="translate(-8.74 5.38) rotate(-15.28)"/><path class="cls-6" d="M20.49,34.57a.61.61,0,0,1-.16-1.19L32,30.19a.61.61,0,1,1,.32,1.17L20.65,34.55Z"/><polygon class="cls-7" points="33.25 8.45 23.27 29.47 17.83 27.1 27.81 6.08 33.25 8.45"/><polygon class="cls-8" points="33.25 8.45 23.27 29.47 20.5 28.27 30.48 7.24 33.25 8.45"/><path class="cls-9" d="M17.83,27.11,18,30.3a6.65,6.65,0,0,1,1.45.43,7,7,0,0,1,1.31.77l2.47-2Z"/><path class="cls-10" d="M18,30.3l.21,3.29,2.55-2.09a7,7,0,0,0-1.31-.77A6.65,6.65,0,0,0,18,30.3Z"/><rect class="cls-11" x="29.81" y="3.33" width="2.31" height="5.91" transform="translate(12.84 32.17) rotate(-66.46)"/><path class="cls-10" d="M35.29,3.77,34.14,6.42,28.72,4.05l1.15-2.64A.94.94,0,0,1,31.1.92l3.71,1.62A.93.93,0,0,1,35.29,3.77Z"/></svg>