<svg xmlns="http://www.w3.org/2000/svg" xmlns:xlink="http://www.w3.org/1999/xlink" viewBox="0 0 44 44"><defs><style>.cls-1,.cls-2{fill:none;}.cls-1{clip-rule:evenodd;}.cls-3{fill:#d2ecf0;}.cls-4{fill:#80c4d5;}.cls-5{fill:#bfa5f9;}.cls-6{fill:#bfc8ca;}.cls-7{fill:#d3d4d5;}.cls-8{fill:#a97ff0;}.cls-9{fill:#b38ef2;}.cls-10{clip-path:url(#clip-path);}.cls-11{clip-path:url(#clip-path-2);}</style><clipPath id="clip-path"><path class="cls-1" d="M62.2,19.75a2.08,2.08,0,0,1-.44,1l-.25.31-.15-.37a2.16,2.16,0,0,1-.1-1.07L61.53,18a1.12,1.12,0,0,1,1-.29Z"/></clipPath><clipPath id="clip-path-2"><rect class="cls-2" x="61.76" y="14.81" width="0.9" height="3.94" transform="translate(35.57 75.44) rotate(-80.67)"/></clipPath></defs><title>troubleshooting</title><circle class="cls-3" cx="22" cy="23.47" r="20.01"/><path class="cls-4" d="M31.25,36.58l.82-5.34-4.21-3.38-5,2L22,35.16l4.21,3.38Zm-6.06-3.66a1.87,1.87,0,1,1,1.57,2.13A1.87,1.87,0,0,1,25.19,32.92Z"/><path class="cls-4" d="M36.43,25.15l.81-5.33L33,16.44l-5,2-.81,5.34,4.21,3.37Zm-6.06-3.66a1.87,1.87,0,1,1,1.56,2.13A1.86,1.86,0,0,1,30.37,21.49Z"/><polygon class="cls-5" points="14.31 31.91 15.55 30.54 7.79 24.27 6.54 25.64 14.31 31.91"/><path class="cls-6" d="M22.63,10l.74-3.61a1,1,0,0,1,.37-.59L30.19,1a1,1,0,0,1,1.2,0l1.94,1.56a1,1,0,0,1,.28,1.18l-3.32,7.3a1,1,0,0,1-.5.5l-3.37,1.48a1,1,0,0,1-1-.13L23,11A1,1,0,0,1,22.63,10Z"/><polygon class="cls-6" points="18.07 23.27 26.93 11.99 23.56 9.27 14.71 20.56 18.07 23.27"/><polygon class="cls-7" points="16.39 21.93 24.28 11.84 22.59 10.48 14.71 20.57 16.39 21.93"/><path class="cls-8" d="M7.45,23.66l.18.75,7.81,6.21,3.11,0a.84.84,0,0,0,.82-.71,6.81,6.81,0,0,1,1.43-3.32,6.92,6.92,0,0,1,2.93-2.15.84.84,0,0,0,.5-.95l-.5-2.11A26.55,26.55,0,0,1,12,24,29.31,29.31,0,0,1,7.45,23.66Z"/><path class="cls-9" d="M15.71,14.26H12.59a.83.83,0,0,0-.81.7,7,7,0,0,1-4.36,5.48.83.83,0,0,0-.5.95l.53,2.28A29.31,29.31,0,0,0,12,24,26.55,26.55,0,0,0,23.73,21.4l-.21-.92Z"/><path class="cls-8" d="M14.54,32,6.93,25.89a3.42,3.42,0,0,0-4.72.4,20.05,20.05,0,0,0,2.11,6.55,2.58,2.58,0,0,1,3.76,3.52l-.64.81a19.64,19.64,0,0,0,2.34,2.12l.75-.95A2.59,2.59,0,0,1,14.17,38l-2.23,2.8h0l3.1-3.89A3.44,3.44,0,0,0,14.54,32Z"/><path class="cls-5" d="M8.08,36.36a2.58,2.58,0,0,0-3.76-3.52,20.55,20.55,0,0,0,3.12,4.33Z"/><path class="cls-5" d="M14.17,38a2.59,2.59,0,0,0-3.64.39l-.75.95a21,21,0,0,0,2.16,1.46Z"/></svg>