<svg xmlns="http://www.w3.org/2000/svg" viewBox="0 0 44 44"><defs><style>.cls-1{fill:#d2ecf0;}.cls-2{fill:#e9eced;}.cls-3{fill:#fff;}.cls-4{fill:#5968e2;}.cls-5{fill:#bfa5f9;}</style></defs><title>trust-safety</title><circle class="cls-1" cx="22" cy="23.47" r="20.01"/><path class="cls-2" d="M22.26,15.48a9.3,9.3,0,1,1-9.3,9.3,9.31,9.31,0,0,1,9.3-9.3m0-7.28A16.58,16.58,0,1,0,38.83,24.78,16.58,16.58,0,0,0,22.26,8.2Z"/><path class="cls-3" d="M22.26,14.07A9.3,9.3,0,1,1,13,23.36a9.3,9.3,0,0,1,9.3-9.29m0-7.28A16.57,16.57,0,1,0,38.83,23.36,16.57,16.57,0,0,0,22.26,6.79Z"/><path class="cls-4" d="M4.75,19.9a.6.6,0,0,1-.46-1l.21-.25a4.48,4.48,0,0,0,1-1.5A11.09,11.09,0,0,0,6,13.77c.1-1.95.2-4,1.37-5.14s3.07-1.23,4.91-1.28a10.41,10.41,0,0,0,3.27-.43,8.47,8.47,0,0,0,2.36-1.47.61.61,0,0,1,.8.92A10,10,0,0,1,16,8a11,11,0,0,1-3.71.52c-1.6,0-3.25.1-4.08.93s-.93,2.62-1,4.34a11.68,11.68,0,0,1-.57,3.78,5.53,5.53,0,0,1-1.2,1.84l-.21.24A.6.6,0,0,1,4.75,19.9Z"/><path class="cls-4" d="M39.44,19.9a.59.59,0,0,1-.46-.21l-.22-.24a5.69,5.69,0,0,1-1.2-1.84A12,12,0,0,1,37,13.83c-.08-1.72-.17-3.5-1-4.34s-2.48-.88-4.08-.93A10.9,10.9,0,0,1,28.19,8a8.23,8.23,0,0,1-2.46-1.52.59.59,0,0,1-.07-.85.61.61,0,0,1,.86-.07,7.16,7.16,0,0,0,2.13,1.32,10.44,10.44,0,0,0,3.28.43c1.83.05,3.73.11,4.9,1.28s1.28,3.19,1.37,5.14a11.09,11.09,0,0,0,.48,3.38,4.48,4.48,0,0,0,1,1.5l.22.25a.62.62,0,0,1-.07.86A.57.57,0,0,1,39.44,19.9Z"/><path class="cls-4" d="M18.29,41a.67.67,0,0,1-.4-.14,8.47,8.47,0,0,0-2.36-1.47,10.13,10.13,0,0,0-3.27-.43c-1.84,0-3.74-.11-4.91-1.28S6.08,34.46,6,32.51a11.09,11.09,0,0,0-.48-3.38,4.42,4.42,0,0,0-1-1.51l-.21-.25a.6.6,0,0,1,.06-.85.61.61,0,0,1,.86.06l.21.25a5.65,5.65,0,0,1,1.2,1.83,11.79,11.79,0,0,1,.57,3.79c.09,1.72.18,3.5,1,4.34s2.49.88,4.09.93a11,11,0,0,1,3.7.52,9.73,9.73,0,0,1,2.69,1.67.6.6,0,0,1-.4,1.06Z"/><path class="cls-4" d="M26.12,40.82a.6.6,0,0,1-.46-.21.59.59,0,0,1,.07-.85,7.84,7.84,0,0,1,2.46-1.52,10.9,10.9,0,0,1,3.7-.52c1.6,0,3.25-.1,4.08-.93s.94-2.62,1-4.34a12.07,12.07,0,0,1,.57-3.79,5.51,5.51,0,0,1,1.21-1.83l.21-.25a.6.6,0,0,1,.85-.06.61.61,0,0,1,.07.85l-.22.25a4.42,4.42,0,0,0-1,1.51,11.09,11.09,0,0,0-.48,3.38c-.09,2-.19,4-1.37,5.14s-3.07,1.23-4.91,1.28a10.13,10.13,0,0,0-3.27.43,6.91,6.91,0,0,0-2.13,1.31A.62.62,0,0,1,26.12,40.82Z"/><path class="cls-2" d="M22.26,36.48A13.12,13.12,0,1,1,35.38,23.36,13.13,13.13,0,0,1,22.26,36.48Zm0-25a11.91,11.91,0,1,0,11.9,11.9A11.92,11.92,0,0,0,22.26,11.46Z"/><path class="cls-5" d="M18.31,31.55l-1.08,8.22a1.51,1.51,0,0,0,1.26,1.7,17.8,17.8,0,0,0,3.11.27A18.56,18.56,0,0,0,26,41.21a1.53,1.53,0,0,0,1.17-1.68l-1-8a1.54,1.54,0,0,0-2-1.25,7.1,7.1,0,0,1-2,.28,7.35,7.35,0,0,1-1.95-.27A1.5,1.5,0,0,0,18.31,31.55Z"/><path class="cls-5" d="M26.12,15.05l1-8A1.52,1.52,0,0,0,26,5.37a18.73,18.73,0,0,0-4.4-.52,18.38,18.38,0,0,0-3.16.27,1.52,1.52,0,0,0-1.26,1.7L18.27,15a1.5,1.5,0,0,0,1.9,1.25,7.47,7.47,0,0,1,4,0A1.53,1.53,0,0,0,26.12,15.05Z"/><path class="cls-5" d="M13.9,19.44,5.68,18.36A1.52,1.52,0,0,0,4,19.62a18.72,18.72,0,0,0,.26,7.49,1.54,1.54,0,0,0,1.68,1.17l8-1.05a1.53,1.53,0,0,0,1.24-2,7.15,7.15,0,0,1-.27-2,7.08,7.08,0,0,1,.27-2A1.5,1.5,0,0,0,13.9,19.44Z"/><path class="cls-5" d="M30.41,27.25l8,1a1.53,1.53,0,0,0,1.68-1.17,18.52,18.52,0,0,0,.26-7.55,1.53,1.53,0,0,0-1.71-1.26L30.41,19.4a1.5,1.5,0,0,0-1.25,1.9,7.18,7.18,0,0,1,0,4A1.53,1.53,0,0,0,30.41,27.25Z"/></svg>