<svg xmlns="http://www.w3.org/2000/svg" xmlns:xlink="http://www.w3.org/1999/xlink" viewBox="0 0 7090.43 3986.31"><defs><style>.cls-1{fill:#2c3e50;}.cls-2{fill:#cb8252;}.cls-3{fill:#d08b73;}.cls-4{fill:#35495e;}.cls-5{fill:#dfe9f1;}.cls-10,.cls-11,.cls-12,.cls-16,.cls-18,.cls-21,.cls-24,.cls-25,.cls-26,.cls-27,.cls-28,.cls-32,.cls-38,.cls-43,.cls-6,.cls-7,.cls-8,.cls-9{fill:none;}.cls-10,.cls-11,.cls-12,.cls-6,.cls-7,.cls-8,.cls-9{stroke:#c3d0da;}.cls-10,.cls-11,.cls-12,.cls-16,.cls-18,.cls-19,.cls-21,.cls-24,.cls-25,.cls-26,.cls-27,.cls-28,.cls-32,.cls-6,.cls-7,.cls-8,.cls-9{stroke-linecap:round;stroke-linejoin:round;}.cls-6{stroke-width:0.78px;}.cls-7{stroke-width:1.05px;}.cls-8{stroke-width:1.28px;}.cls-9{stroke-width:0.73px;}.cls-10{stroke-width:0.85px;}.cls-11{stroke-width:1.66px;}.cls-12{stroke-width:1.62px;}.cls-13{fill:#b5c1ca;}.cls-14{fill:#e4eaed;}.cls-15{fill:#3b97d3;}.cls-16,.cls-25,.cls-26{stroke:#285680;}.cls-16{stroke-width:1.54px;}.cls-17{fill:#ee5e43;}.cls-18,.cls-19,.cls-21{stroke:#c4422b;}.cls-18,.cls-19{stroke-width:1.78px;}.cls-19,.cls-23{fill:#f29c1f;}.cls-20{fill:#ee5f43;}.cls-21{stroke-width:2.02px;}.cls-22{fill:#71c285;}.cls-24{stroke:#805333;stroke-width:1.67px;}.cls-25{stroke-width:1.79px;}.cls-26{stroke-width:0.92px;}.cls-27,.cls-28{stroke:#4c8056;}.cls-27{stroke-width:1.86px;}.cls-28{stroke-width:1.72px;}.cls-29{fill:#804537;}.cls-30{fill:#4c8056;}.cls-31{fill:#4fba6f;}.cls-32,.cls-43{stroke:#2c3e50;}.cls-32{stroke-width:6px;}.cls-33{clip-path:url(#clip-path);}.cls-34{fill:#231f20;}.cls-35{clip-path:url(#clip-path-2);}.cls-36,.cls-39{fill:#a36648;}.cls-37{clip-path:url(#clip-path-3);}.cls-38,.cls-39{stroke:#a36648;}.cls-38,.cls-39,.cls-43{stroke-miterlimit:10;}.cls-40{clip-path:url(#clip-path-4);}.cls-41{fill:#bc6c56;}.cls-42{clip-path:url(#clip-path-5);}.cls-43{stroke-width:0.81px;}
.lap_location {
	animation-name: locationOpecity;
    animation-duration: 3s;
    animation-iteration-count: infinite;
}

@keyframes locationOpecity {
	0% {opacity: 1.5;}
	50% {opacity: 0.4;}
	100% {opacity: 1.5;}
}
.contact_block {
	animation-name: contactBlocka-1;
    animation-duration: 4s;
    animation-iteration-count: infinite;
    transform-origin: 50% 50%;
}

@keyframes contactBlocka-1 {
	0% {transform: translate(0, 0);}
	50% {transform: translate(20px, 0);}
}

.contact_block-sec {
	animation-name: contactBlocka-2;
    animation-duration: 4s;
    animation-iteration-count: infinite;
    transform-origin: 50% 50%;
}

@keyframes contactBlocka-2 {
	0% {transform: translate(0, 0);}
	50% {transform: translate(-20px, 0);}
}
    </style><clipPath id="clip-path" transform="translate(2062.42 -100.11)"><path class="cls-1" d="M326.42,3871.09l-37.22,35s6.57,53.63-5.47,66.76-33.93,31.74-25.17,56.92,24.08,36.11,24.08,36.11H423.82S449,4028.69,449,4017.75s-13.14-137.91-35-146.66S326.42,3871.09,326.42,3871.09Z"/></clipPath><clipPath id="clip-path-2" transform="translate(2062.42 -100.11)"><path class="cls-1" d="M751.07,3930.19s-5.47,51.44,0,77.71,9.85,58,9.85,58h333.81s33.93-15.32,33.93-33.92-13.13-47.07-73.33-46c-65.67-32.84-148.85-106.17-148.85-106.17l-94.12,35Z"/></clipPath><clipPath id="clip-path-3" transform="translate(2062.42 -100.11)"><path class="cls-2" d="M617,2724.08s-102.34,448.74-181.14,529.73c35,74.42-21.89,135.71-21.89,135.71l19.16,501.82s-10.4-11.5-56.37-9.31-87.56,24.08-87.56,24.08-85.37-348-28.45-549.42c6.56-186.06,10.94-464.06,4.38-507.84s-26.06-130.67-25.54-218.16,395.47-57.64,395.47-57.64Z"/></clipPath><clipPath id="clip-path-4" transform="translate(2062.42 -100.11)"><polygon class="cls-3" points="502.63 2308.18 666.8 2221.72 528.89 2157.15 435.86 2232.67 502.63 2308.18"/></clipPath><clipPath id="clip-path-5" transform="translate(2062.42 -100.11)"><path class="cls-4" d="M320.21,1902.14c36.48,67.85,30.28,179.49,18.24,269.24,57.46-18.06,164.18,24.07,164.18,24.07v112.73s-125.87,77.71-244.07,41.59c-90.84-48.15-124.77-480.47-120.39-510s200.28-158.7,200.28-158.7S283.73,1834.28,320.21,1902.14Z"/></clipPath></defs><title>2723663</title><g id="BACKGROUND"><path class="cls-5" d="M4256.8,1750.65a271.32,271.32,0,0,1,19.68-21.14,191,191,0,0,1,17.28-14.61l10.19-7.2,7.48-5.5c20.22-14.7,42.59-29.7,67.18-44.41,50.05-29,105.39-58.26,170.41-85.19,54.58-22.4,120.43-45.79,175.26-61.09,54.84-15.1,98.83-21.74,109.21-6.33,10.19,15.12-13.6,51.31-54.87,91.29s-100,83.32-156.13,114a672.06,672.06,0,0,1-95.82,43.14c-31.5,11.64-62.05,18.48-91.11,24.72-29.05,6-56.63,10.14-82.27,13l-9.38,1c-2.74.12-5.49.31-8.28.63-5.58.59-11.26,1.51-17,2.59-11.44,2.15-23,4.56-33.62,5.33Z" transform="translate(2062.42 -100.11)"/><path class="cls-6" d="M4272.94,1775.65c9.15-3.92,19.05-9.69,30.54-15.76,5.71-3,11.83-6,18.18-8.64l16.85-6.62,66.45-25.9c22.13-8.73,44.5-17.11,66.5-26.17s43.67-18.83,65.4-28.61a2852.37,2852.37,0,0,0,255-132" transform="translate(2062.42 -100.11)"/><line class="cls-6" x1="6743.68" y1="1493.11" x2="6788.73" y2="1511.31"/><line class="cls-6" x1="6713.53" y1="1508.75" x2="6709.29" y2="1455.91"/><line class="cls-6" x1="6647.41" y1="1541.43" x2="6687.57" y2="1570.71"/><path class="cls-6" d="M4536.86,1664c1.75-19.67,3.37-39.14,4.7-58.73" transform="translate(2062.42 -100.11)"/><path class="cls-6" d="M4482.77,1687.76c17.32,12.16,34.72,24.06,52.35,35.94" transform="translate(2062.42 -100.11)"/><line class="cls-6" x1="6456.14" y1="1623.01" x2="6465.56" y2="1581.04"/><path class="cls-5" d="M4260.42,1881.13c14.7-5.8,33.13-15.08,61-28.56,14-6.64,30-14.17,50-21.7,4.87-1.87,10.37-3.71,15.77-5.54l14.9-4.76c10.06-3.22,20-5.88,30.27-8.71,40.7-10.68,82.7-18.23,124.37-24s82.89-10.17,123.54-15.79c8.79-1.06,17-2.49,26.19-3.79l30.47-5.39c19.85-3.33,38.94-6.3,56.72-9.79s34.42-7.37,49.58-12.4c14.68-4.54,29.55-12.33,44.07-21.56,28.9-18.86,55.16-41.59,77.12-55.06,22-13.83,39.64-18.84,50.39-12.55,10.57,6.37,14.7,22.48,12.71,47.74-2.41,25.1-9.65,60.34-33.9,104.35a275.49,275.49,0,0,1-22.41,33.82,286.47,286.47,0,0,1-31.15,33.54c-22.42,20.46-46.71,36.69-70.41,49.8a589.78,589.78,0,0,1-68.72,32l-15.9,6.14-7.9,2.93L4768,1965c-12.17,4.34-24.13,7.72-35.95,11-54.07,14-104.18,18.4-149.08,19-45.12.62-85.56-2.47-123-5.57l-53.35-4.78c-17.45-1.2-35.64-1.9-53.54-3.31-35.81-2.61-70.68-9.18-96.16-22.75Z" transform="translate(2062.42 -100.11)"/><path class="cls-7" d="M4260.9,1921.15c49.56,8.23,116.47-15.82,182-20.33,64.82-6.69,128.53-8.58,192.26-16.06a742.54,742.54,0,0,0,95.25-16.83c31.38-8.14,62.37-16.38,93.67-27.94,31-11.6,62.63-26.63,90.38-50.85,27.37-23.8,48.33-52.52,66.72-80.43" transform="translate(2062.42 -100.11)"/><path class="cls-7" d="M4846.77,1830.8a305.43,305.43,0,0,0,64.79,22.7" transform="translate(2062.42 -100.11)"/><path class="cls-7" d="M4802.57,1847.46a557.41,557.41,0,0,0,2.74-70.8" transform="translate(2062.42 -100.11)"/><path class="cls-7" d="M4705.9,1873.53c14.28,17.09,29.31,34,45.15,50.09" transform="translate(2062.42 -100.11)"/><path class="cls-7" d="M4635.12,1884.76c10.33-24.42,19.62-49,27.47-73.55" transform="translate(2062.42 -100.11)"/><path class="cls-7" d="M4555.93,1891.93c16.71,23,33.66,45.92,51.18,68.62" transform="translate(2062.42 -100.11)"/><path class="cls-7" d="M4426.41,1902.6c9.38-17.2,19.26-34.4,29.32-51.41" transform="translate(2062.42 -100.11)"/><path class="cls-5" d="M4003.29,1795.9c5.2-2.34,12.67-3.94,20.07-4.64a106.08,106.08,0,0,1,11.82-.55c5.14.12,9,.29,10.58,0a3,3,0,0,0,.76-.25,16.74,16.74,0,0,1,2.12,0l4.89,0,9.55.27c6.34.25,12.46.64,18.46,1.11,12,.93,23.33,2.2,33.89,3.4l15.22,1.7,7.23.77,8.09,1.06a845.37,845.37,0,0,1,140.63,30.79,753.45,753.45,0,0,1,77.06,28.81,705.43,705.43,0,0,1,78.46,40.62c51.51,30.73,100.56,68.73,145.66,112.89,38,37.06,74.74,80.21,107,124.56,33.58,45.07,61.92,93.29,81.55,137.23,39.53,88.34,48.47,160.15,24,177.14-24.82,17.3-81.23-19.41-148.66-69.36l-109.32-81.8c-40-30.24-79.67-61.18-116-90.08l-117.05-94.83c-36.53-29.67-72.25-57.63-108.49-84.79l-104-78c-17.28-12.61-32.35-25.1-47-36.17-7.46-5.58-14.41-10.67-22.41-15.6-6.76-4.86-15.83-10-22-7.75Z" transform="translate(2062.42 -100.11)"/><path class="cls-8" d="M4008.24,1844.17c5.78-1.34,12.6-.79,18.91.32,3.87.63,7.31,1.44,9.47,2,1.5.47,4.74,1.2,7.49,1.88,11.13,2.83,21.57,6.18,31.48,9.71s19.33,7.24,28.39,10.85l27.28,10.83c36.81,14.75,73.22,30.61,108.86,48A1098.35,1098.35,0,0,1,4344,1985.33a1127.83,1127.83,0,0,1,95.8,68.14c61.28,48.26,117.49,101.64,171.18,157.1,53.93,55,101.37,114,144.28,176.65" transform="translate(2062.42 -100.11)"/><path class="cls-8" d="M4630.43,2231c-3.46,26-7.61,51.59-12.58,76.94" transform="translate(2062.42 -100.11)"/><path class="cls-8" d="M4592.43,2191.57c26.7-10.81,53.76-21.3,81-31.38" transform="translate(2062.42 -100.11)"/><path class="cls-8" d="M4506.06,2109.15c-6.51,26.34-13.31,52.2-20.64,78.14" transform="translate(2062.42 -100.11)"/><path class="cls-8" d="M4439.8,2053.47c29.87-12.14,60.38-23.22,91.51-33.59" transform="translate(2062.42 -100.11)"/><path class="cls-8" d="M4361.09,1996.41c-.8,34.6-3,68.78-6.36,102.73" transform="translate(2062.42 -100.11)"/><path class="cls-8" d="M4222,1919.09q31.08-17.61,63.74-33.81" transform="translate(2062.42 -100.11)"/><path class="cls-5" d="M-840.73,1070.4a68.68,68.68,0,0,1-34.56-6.83,74.83,74.83,0,0,1-14.34-9.18c-5.49-4.82-3.71-2.87-4.71-3.42a18.88,18.88,0,0,0-5.1,0l-2.4.4-1.22.26a33.82,33.82,0,0,1-3.4-.67l-6.79-1.42-5.91-.74c-16.22-1.93-36.22-3-60.26-4.16-12-.59-25-1.22-39.26-2.27-7.07-.52-14.55-1.17-22.31-2l-22-2.66c-29.54-3.92-60-9.37-91.34-16.14-52.67-11.56-113-26.49-163.3-38-50.07-12.12-90.66-21.29-94.18-38.38-3.53-16.33,32.15-40.32,87.23-55.11,54.81-15.2,126.67-19.15,186.56-12.72a614.48,614.48,0,0,1,96,17.79c15.15,4,27.91,8.08,42.13,12.52,13.94,4.44,27.92,9.3,41.47,14.78,27.09,10.89,52.71,24.66,73.19,41.41a163.45,163.45,0,0,1,13.84,12.68,96.79,96.79,0,0,1,12.89,14.27,78.32,78.32,0,0,1,8.64,15.31c1.26,2.79,1.24,4.34,2.7,6.33a12.54,12.54,0,0,0,5.65,4.42Z" transform="translate(2062.42 -100.11)"/><path class="cls-9" d="M-846.72,1042.5a40.46,40.46,0,0,1-21-10,41.15,41.15,0,0,1-3.28-3.33l-.88-1.17-1.8-2.22a54.69,54.69,0,0,0-8.4-7.95,53.82,53.82,0,0,0-5-3.42l-6.86-3.9c-4.56-2.57-8.73-4.76-13.4-6.86-18.29-8.54-38.84-14.49-59.85-19.55s-42.83-8.88-64.68-13.19-43.4-8.7-65.19-12.66c-86.89-16-176.13-27.54-268-20.12" transform="translate(2062.42 -100.11)"/><path class="cls-9" d="M-1245.5,938.07c-8.84-12.06-18-24.31-27.56-36.19" transform="translate(2062.42 -100.11)"/><path class="cls-9" d="M-1213.83,940.9c-8,14.29-15.65,29-23,43.48" transform="translate(2062.42 -100.11)"/><path class="cls-9" d="M-1145.69,949.91c-5-14.6-10.2-29-15.56-43.53" transform="translate(2062.42 -100.11)"/><path class="cls-9" d="M-1097,958.28c-11.77,13.94-23.34,28.17-34.66,42.28" transform="translate(2062.42 -100.11)"/><line class="cls-9" x1="1019.32" y1="868.6" x2="998.34" y2="813.49"/><path class="cls-9" d="M-956.57,986.77c-9.89,8.89-19.3,18-28.64,27.33" transform="translate(2062.42 -100.11)"/><path class="cls-5" d="M-958.85,785.25c-2-1.91-3.42-7.32-5.63-15.21s-5-18.17-8.07-31.15c-1.52-6.5-3.11-13.75-4.48-22.69q-1.82-10.55-3.66-21.3c-2.37-14.35-4.55-29.26-6.49-44.89-7.55-62.18-11.55-135.89,1.09-218.13,2.7-17,6.13-35.34,10.66-53.54s9.8-35.94,15.65-53.19a889.53,889.53,0,0,1,38.65-94.52c6.63-14,13.24-26.88,19.59-38.56s12.79-22.39,19.4-30.46c13.25-16.43,26.53-21.88,36-18.76,9.52,3.34,15.8,12.83,21.6,28.53a175.47,175.47,0,0,1,7.7,31.15c2.08,13.72,3.52,28.23,4.4,43.91,1.78,31.22,1.24,65.58.12,99-1.36,32.89-2.72,65.91-4,97.3-3.69,72.59-11.76,142.67-25.59,205.5q-5.13,23.54-11.22,45.52c-4.1,15.24-8.36,26.91-12.26,41C-873.35,762-883.2,790.24-900,806.88Z" transform="translate(2062.42 -100.11)"/><path class="cls-10" d="M-928,795.13c3.67-6.78,6.09-17.27,7.44-28.55s1.75-23.8,2.1-36.85l.77-20.09,1.06-19.31,1.85-38.76c2.31-51.76,4.16-103.85,8-155.65s9.62-103.15,19.63-153.57c9.68-50.48,21.74-101.08,30.88-153" transform="translate(2062.42 -100.11)"/><line class="cls-10" x1="1178.84" y1="223.77" x2="1225.32" y2="199.29"/><path class="cls-10" d="M-890.46,359.75q-24.24-15.58-48.19-32" transform="translate(2062.42 -100.11)"/><path class="cls-10" d="M-901.68,438.44q25.06-10,50.32-19.26" transform="translate(2062.42 -100.11)"/><path class="cls-10" d="M-906.85,495.92Q-933.59,478-959.94,459" transform="translate(2062.42 -100.11)"/><path class="cls-10" d="M-910.76,560.34q30.21-16.77,60.52-33" transform="translate(2062.42 -100.11)"/><line class="cls-10" x1="1146.99" y1="564.58" x2="1109.31" y2="536.17"/><path class="cls-5" d="M-808.7,942.5-1104.52,902c-114.12-16.9-243.85-39.13-388-76.48C-1553,809.8-1618.94,790.8-1684,770.07c-65.28-20.75-129.25-43.53-185.21-66.33-111.72-45.83-194.94-90.68-193.22-130,1.64-38.88,90.29-70,211.93-83.67,60.92-6.9,128.68-9.83,198.92-8.89s142.91,6.35,210.6,16.18c155.35,22.32,295.13,70.32,410.14,130.65,28.65,15.21,56.09,30.76,82,47.41s49.67,33.55,71.79,50.77A1041.15,1041.15,0,0,1-764,828.52Z" transform="translate(2062.42 -100.11)"/><path class="cls-11" d="M-789.8,882c-88.16-45.16-178.62-84.18-273.77-115.36-95-31.81-192.7-57.78-291.46-80.52s-198.79-41.57-299.13-58.67c-100.3-16.77-200.67-33-302.65-45.77" transform="translate(2062.42 -100.11)"/><line class="cls-11" x1="371.57" y1="521.26" x2="319.06" y2="432.45"/><path class="cls-11" d="M-1619.66,633.45q-30.61,47.52-60.5,95.2" transform="translate(2062.42 -100.11)"/><path class="cls-11" d="M-1465.47,662.42c-10-33.83-20.33-67.44-30.87-101.16" transform="translate(2062.42 -100.11)"/><path class="cls-11" d="M-1355,686.16q-42.43,46.37-83.26,93.49" transform="translate(2062.42 -100.11)"/><path class="cls-11" d="M-1233.07,716.24q-19.65-64.49-41.44-128.69" transform="translate(2062.42 -100.11)"/><path class="cls-11" d="M-1039.57,774.88c-24.43,18.16-48.53,37.19-72,56" transform="translate(2062.42 -100.11)"/><path class="cls-5" d="M4226.6,704.52c-21.67-46.29-23.57-91.44-22-118.67a289.22,289.22,0,0,1,8.75-56.11c5.42-21.4,17.46-56.78,33.76-86.64s36.26-54.05,56.55-55.52c19.15-1.15,32.77,18.41,42.15,39.27S4360.36,470,4361.5,475c-.95-25.51,1.76-69.78,27-119.7,4.62-9.17,18.4-36.05,37.24-60.11s42.55-45.08,65.8-43.36c30.91,2.34,53.55,43.82,55.77,98.33a313.69,313.69,0,0,1,73.17-46.85c16.87-8,115.92-51.86,146.66-16.15,18.94,21.86,3.23,62.88-2.21,77.44-17.16,45.37-54.47,70.47-69.34,80.67-25.22,17.21-33.88,21.36-48.94,25.46,66.88,13.92,92.95,54,89.07,83.5-2.66,19.62-24.62,34.52-47.34,45.12s-46.14,17-52.08,18.63c-58.7,16.13-109.34,6.1-135.37-.79,20.32,8.76,85.77,42,80.94,73.57-2.61,18.06-27.56,30.71-56.95,39.87s-63.12,14.79-84.88,17.81a519.34,519.34,0,0,1-68.28,4.35c-46.46,0-81.68-5.28-89.32-6.59-15.14-2.48-27.67-5.54-36.72-7.79A249.7,249.7,0,0,1,4226.6,704.52Z" transform="translate(2062.42 -100.11)"/><path class="cls-12" d="M4215.42,799.74s.11-.62.31-1.82a42.43,42.43,0,0,1,1.2-5.24,103.79,103.79,0,0,1,7.34-19.1c7.67-16.08,22.07-36.83,40.44-60.31A987.91,987.91,0,0,1,4332.28,636c26.19-27.14,55.58-54.9,86-81.94,121.82-108.45,261.21-203.79,281.07-216" transform="translate(2062.42 -100.11)"/><path class="cls-12" d="M4489.68,493.12c64.81,10.64,128.32,23.64,191.3,38" transform="translate(2062.42 -100.11)"/><path class="cls-12" d="M4467.72,509.53c1.85-64.44,6.37-129.69,12.52-195" transform="translate(2062.42 -100.11)"/><path class="cls-12" d="M4311.27,661.79c62,1.13,122.1,7.77,181.54,16.49" transform="translate(2062.42 -100.11)"/><path class="cls-12" d="M4294.41,677c-8.85-68.19-10.53-139.46-9.26-210.68" transform="translate(2062.42 -100.11)"/><path class="cls-5" d="M-889.3,1943.83c32.26,60.76,37.88,121.32,37.65,158a389.75,389.75,0,0,1-8,76c-5.82,29.15-19.6,77.51-39.49,118.76-19.72,41.27-45.08,75.11-72.25,78.45-25.66,2.86-45.29-22.51-59.31-49.91s-22.51-57-24.38-63.58c3,34.22,2.37,93.9-28.15,162.71-5.6,12.65-22.29,49.71-46,83.33s-54.13,63.48-85.5,62.75c-41.71-1-74.95-55.27-81.63-128.38a422.18,422.18,0,0,1-95.17,67.93c-22.13,12-152.3,77.58-196,31.67-26.94-28.09-8.61-84.29-2.28-104.24,20-62.15,68.43-98.41,87.72-113.13,32.73-24.85,44.09-31,64-37.55-90.83-14.17-128.6-66.27-125.38-106.18,2.24-26.56,30.74-48.08,60.56-63.87s60.87-26,68.73-28.57c77.81-25.67,146.56-15.63,182-8.13-27.91-10.39-118.14-50.61-113.79-93.39,2.28-24.45,35-43.15,73.85-57.46,38.85-14.13,83.83-24.17,112.87-29.7a697.86,697.86,0,0,1,91.48-10.48c62.44-3.18,110.15,1.55,120.51,2.8,20.51,2.3,37.56,5.56,49.87,8A334.86,334.86,0,0,1-889.3,1943.83Z" transform="translate(2062.42 -100.11)"/><path class="cls-12" d="M-880.75,1815.09s-.1.83-.29,2.46a57.31,57.31,0,0,1-1.25,7.14,140.7,140.7,0,0,1-8.57,26.16c-9.23,22.14-27.17,51-50.27,83.81a1329.82,1329.82,0,0,1-85.57,108.44c-33.36,38.26-71,77.56-110.07,116-156.39,154-337.26,291.65-363.13,309.39" transform="translate(2062.42 -100.11)"/><path class="cls-12" d="M-1228.57,2245.84c-87.83-9.9-174.08-23.05-259.71-38.09" transform="translate(2062.42 -100.11)"/><path class="cls-12" d="M-1200.17,2222.29c1.89,86.75.25,174.76-3.59,263" transform="translate(2062.42 -100.11)"/><path class="cls-12" d="M-1000.21,2007c-83.46,2.69-164.64-2.15-245.13-9.84" transform="translate(2062.42 -100.11)"/><path class="cls-12" d="M-978.58,1985.42c16.52,91,23.62,186.73,26.74,282.54" transform="translate(2062.42 -100.11)"/><path class="cls-13" d="M-262,2451.27l-37.21-35.71L-262,1979.28H-1353l-37.21-35.7,37.21-347.36L-446.67,170l633.14-35.71L223.68,170V1551.75H517.83v427.53H223.68v472ZM-262,601l-615.64,950.8H-262Z" transform="translate(2062.42 -100.11)"/><path class="cls-13" d="M719.54,1312.35c0-588.27,290.72-1176.54,944-1176.54,649.83,0,944,588.27,944,1176.54s-294.14,1180-944,1180C1010.26,2492.31,719.54,1900.62,719.54,1312.35Zm1392,0c0-420.68-123.12-745.6-448-745.6-328.33,0-451.46,324.92-451.46,745.6s123.13,749,451.46,749C1988.43,2061.36,2111.55,1733,2111.55,1312.35Z" transform="translate(2062.42 -100.11)"/><path class="cls-13" d="M3826.32,2451.27l-37.21-35.71,37.21-436.28h-1091l-37.21-35.7,37.21-347.36L3641.63,170l633.15-35.71L4312,170V1551.75l256.93-35.7,37.21,35.7v427.53H4312v472Zm0-1850.32-615.62,950.8h615.62Z" transform="translate(2062.42 -100.11)"/><path class="cls-14" d="M-299.19,2415.56v-472h-1091V1560.52L-483.88,134.29H186.47V1516.05H480.61v427.53H186.47v472Zm0-1850.32-615.64,950.81h615.64Z" transform="translate(2062.42 -100.11)"/><path class="cls-14" d="M682.33,1276.65c0-588.28,290.72-1176.54,944-1176.54,649.83,0,944,588.26,944,1176.54s-294.14,1180-944,1180C973.05,2456.61,682.33,1864.92,682.33,1276.65Zm1392,0c0-420.69-123.12-745.61-448-745.61C1298,531,1174.84,856,1174.84,1276.65s123.13,749,451.46,749C1951.22,2025.66,2074.34,1697.33,2074.34,1276.65Z" transform="translate(2062.42 -100.11)"/><path class="cls-14" d="M3789.11,2415.56v-472h-1091V1560.52L3604.42,134.29h670.36V1516.05h294.14v427.53H4274.78v472Zm0-1850.32-615.62,950.81h615.62Z" transform="translate(2062.42 -100.11)"/></g><g id="OBJECTS"><path class="cls-15" d="M-374.31,4051a164,164,0,0,0-3-37.28l-2-9.44-2.45-9.63-1.92-7.55-1.43-6.09c-4.55-18.05-9.73-35.71-15.07-52.73q-15.19-46.49-31.73-97.08c-21.84-65.36-46.4-135.79-74.48-210.52S-566,3467-602.21,3384.43q-27.12-61.89-57.77-126.35-15.37-32.19-31.74-64.93c-11-21.92-22.83-45.18-34.92-67.61-40.81-76-88.64-154.53-137-229.55s-97.23-147-141.42-210.39l-17.13-24.51q-8.73-12.12-17.42-23.16c-11.58-14.73-23-28.17-34-40.63-22-24.84-42.29-46-60.16-63.88-35.85-35.38-62.42-59.38-81.18-53.43-9.1,2.91-16,13.58-19.93,30.85s-4.67,41.1-2.09,68.72c2.5,27.46,8.4,58.87,15.25,90.57,3.31,15.19,6.78,31.14,10.39,47.74,1.64,7.87,3.32,15.77,4.72,23.42l1.13,5.79,1.62,7.21q1.68,7.29,3.4,14.69c18.51,79,45.93,165.94,77.37,251.86s66.56,171.11,100.41,248.64l14.58,33.07,15.19,33.71q15.36,33.54,31.27,65.93c21.16,43.19,43.11,84.83,65.49,124.86a2449.84,2449.84,0,0,0,139,220.48,2248.57,2248.57,0,0,0,141.6,180c23.08,26.79,46.53,51.46,67.75,74.22,10.67,11.51,20.89,22.82,30.6,34.24,4.94,5.93,9.64,11.09,13.69,17.1a55.14,55.14,0,0,1,8.59,18.79Z" transform="translate(2062.42 -100.11)"/><path class="cls-16" d="M-436.82,4053.74c-1.53-11-5.05-21.5-9.54-32-2.24-5.2-4.15-9.09-6-12.86l-6-12.22c-8.11-16.09-16.58-31.48-25.06-46.34l-49.73-86.42q-48.89-86.41-95.45-174.47c-62.21-117.32-121.76-236.44-179.91-356.36-29.14-60-57.5-120.26-87.23-179.77l-89.86-178.52c-30-59.62-59.79-119.53-88.41-180.36l-21.27-45.77-20.57-45.35c-13.35-28.56-28.61-57.32-44-87.35" transform="translate(2062.42 -100.11)"/><path class="cls-16" d="M-1007.45,2931.11c-35.68-12.83-71.35-25.87-107-39.39" transform="translate(2062.42 -100.11)"/><line class="cls-16" x1="1097.51" y1="2915.61" x2="1161.22" y2="2812.76"/><line class="cls-16" x1="1189.47" y1="3099.37" x2="1080.17" y2="3086.83"/><line class="cls-16" x1="1253.94" y1="3232.95" x2="1313.57" y2="3107.13"/><line class="cls-16" x1="1326.94" y1="3381.35" x2="1186.34" y2="3353.33"/><line class="cls-16" x1="1449.68" y1="3619" x2="1482.38" y2="3519.72"/><path class="cls-17" d="M-485,4037.57a63.26,63.26,0,0,0,0-31.3,106,106,0,0,0-11.29-26.51c-9.32-16.16-18.89-31.67-28.79-47.09-19.7-30.67-40.65-59-59.36-85.17-9.36-13.08-18.11-25.66-26.2-37.62A326.55,326.55,0,0,1-630.32,3776c-11.21-21.5-18.75-41.29-23-58.23-24.55-97.5-5-185-70.2-255.51-9.78-10.59-47.57-52.59-90-45.29-22.21,3.82-33,19.32-90.89,80.85-70.29,74.68-88.43,87.62-106.35,84-22.55-4.55-33.48-32.06-43-53.18-22.4-49.47-3.17-73.05-26.58-120.68-6.74-13.72-19.3-39.8-40.43-42.78-21.87-3.07-31.77,21-47.84,18.71-15.28-2.21-18.45-26.49-22.7-58.32s-10.19-70.83-27.25-103.53c-18.4-35.25-63-71.87-98.3-59.25-22.83,8.16-35.42,34.61-47.31,60.29-36.92,79.73-9.64,135.11-46,162.65-2.63,2-19.93,14.64-36.36,9.56-28.15-8.7-19.38-57.77-55.22-110.91-9.54-14.15-31.24-47-54.75-44-25,3.17-26.79,44.07-53.77,49.67-23.29,4.84-34.69-23.1-78.94-48.19-9.35-5.3-77.83-44.77-114.85-21.18-25.66,16.35-34.92,62.17-25.58,99.12,12,47.35,53.65,76,102.78,106.77s105.39,63.16,149.28,119.17c14,17.92,26.65,37.83,25.27,60.4-2.35,38.5-45.08,47.48-54.7,79.26-3.41,11.29-2.87,24.81,1,39.15s12.67,30.5,23.29,45.18c21.6,29.82,53.48,56,86.74,66.59,43.55,13.91,74.92-2,111.83-20s79.39-38.37,142.32-36.85c6.07.15,26.61.87,46.54,5,19.46,4,39.88,12.25,44.67,26.91,9,27.49-47.31,46.44-64.25,105.42-13.21,46,1.16,110.26,41.05,141,14.51,11.17,31.13,17,66.2,14.49s88.62-13,175.05-37c85.61-23.73,132.49-40.47,165.33-50.52s51.23-13.48,78.07-13.78c23.55-.27,52.2,1.67,82.54,15.19a153.35,153.35,0,0,1,44.47,29.64c2.86,2.77,8.65,8.2,12.17,11.91,1.93,2,3.12,3.51,4.68,5.41s3.16,4,4.64,6.15c5.88,8.46,10.65,19.47,9.26,32.61,8.13-10.84,16-14.43,23.43-17.53C-500.74,4051.3-493.74,4048.71-485,4037.57Z" transform="translate(2062.42 -100.11)"/><path class="cls-18" d="M-511.16,4043.21a42.13,42.13,0,0,0-2.3-6.8,65.42,65.42,0,0,0-10.86-16.84c-2.87-3.34-6-6.7-9.64-10.2-4.15-4-8.74-8.27-13.61-12.86A389.81,389.81,0,0,0-580,3969.24c-25.36-19.17-58.11-38.42-97.61-58.86-39.69-20.54-82.38-43.19-126.08-66.27-87.42-46.2-177.85-96-253.61-139.24s-138.2-77.76-171.38-91.22-82.28-34.27-136.74-60.23-113.39-59.23-166.59-92-101.71-65-136.64-88.89-56.8-39.15-56.8-39.15" transform="translate(2062.42 -100.11)"/><path class="cls-19" d="M-1228.66,3613.65c-82.39,35.2-166.17,69.12-256.34,95.79" transform="translate(2062.42 -100.11)"/><path class="cls-19" d="M-1276.64,3593.6c-11.06-100.13-18-199.9-12.53-295.37" transform="translate(2062.42 -100.11)"/><path class="cls-19" d="M-795,3848.71c-90.28,38.2-182,74.78-276.14,108.73" transform="translate(2062.42 -100.11)"/><path class="cls-18" d="M-834.13,3827.86c1.72-95.08,4.83-189.89,9.85-284.18" transform="translate(2062.42 -100.11)"/><path class="cls-19" d="M-1139.75,3658.31c-.75-62.81-1.86-125.7-1.85-188.21" transform="translate(2062.42 -100.11)"/><path class="cls-17" d="M-322.27,4033.26c44.61,2.28,151.87,1.78,265.87-61.14,120.88-66.7,178.9-164.68,199.41-203.8a979.68,979.68,0,0,1-95.75,59.37c-86.58,47-134.38,56.09-200.8,88.39C-195.83,3936.64-256.24,3971.76-322.27,4033.26Z" transform="translate(2062.42 -100.11)"/><path class="cls-17" d="M-322.27,4029.8c67-26,153-71.51,226.83-151.58,23.15-25.1,55.36-60.64,79.91-117.44a381.37,381.37,0,0,0,30.88-154.41A668.94,668.94,0,0,1-85.53,3748.43c-47.26,50.86-76.22,65.91-120.63,111.9C-238.89,3894.22-283.15,3948.16-322.27,4029.8Z" transform="translate(2062.42 -100.11)"/><path class="cls-17" d="M-322.27,4024.46c34.87-27.92,114.74-99.52,158.21-222.26,46.1-130.13,24.43-241.93,13.79-284.79a1855.49,1855.49,0,0,0-172,507.05Z" transform="translate(2062.42 -100.11)"/><path class="cls-17" d="M-328.78,4038.47c75.86-122.24,80.06-207.72,69-263.95-6.83-34.59-22.32-72.68-22.33-135.21,0-56.95,12.85-103.47,23.68-133.82-26.27,21.38-65,59.17-87.61,116.58-12.59,31.93-20.69,71.2-8.41,212.58C-350,3885.92-342.46,3955.64-328.78,4038.47Z" transform="translate(2062.42 -100.11)"/><path class="cls-17" d="M-329.35,4034.34c5.81-120.46-12.91-213-29.27-271.24-20.8-74.06-42.05-107.78-59.39-130-40.5-51.79-89.52-78.78-119.39-92.15a526.16,526.16,0,0,1,65.86,119.94c30.24,77.84,25.54,122.1,45.78,192C-412.71,3898-386.81,3962.35-329.35,4034.34Z" transform="translate(2062.42 -100.11)"/><path class="cls-17" d="M-318.93,4033.9c-8.59-43.84-35.05-147.78-123.69-243.16-94-101.14-203.1-133.71-246-144.14a1855.18,1855.18,0,0,0,369.7,387.3Z" transform="translate(2062.42 -100.11)"/><path class="cls-17" d="M-302.06,4033.88c-27.44-38.49-98.11-126.72-224.92-180.31-125.06-52.85-236-43-282.83-36.12,155.52,49.62,243.58,103.79,296.72,147.41,24.43,20.06,88.22,76.25,172.55,74A188.45,188.45,0,0,0-302.06,4033.88Z" transform="translate(2062.42 -100.11)"/><path class="cls-20" d="M3850,3959a684.94,684.94,0,0,0,216-20.78,648.69,648.69,0,0,0,89.79-30.38c66.14-28.13,217.47-101,210.85-170.49-6.32-66.23-154.08-92.22-172.94-94.66,46.75-1.58,125.94-10,212.06-54.11,15.92-8.16,62.61-31.88,104.61-63.91,21-16,40.83-34.12,55-53.54a119.94,119.94,0,0,0,16.39-30,87.7,87.7,0,0,0,5.17-32.28c-1.31-59.63-81.08-102.28-183.43-108.6a594.55,594.55,0,0,0,43.44-55.37,641.1,641.1,0,0,0,44.67-75.57c3.5-7,11.23-22.53,20.24-41.79s19-42.31,29.14-66.22c20.51-48.54,44-107.52,18.85-144.39-15.37-22.51-43.18-32.07-71.28-35.47s-57.1.5-72.79,3.17c-24.13,4.1-48.15,13.17-69.4,24.75a306.49,306.49,0,0,0-55,38.54c-31,27.1-50.29,53.49-61,68.18-36.3,49.61-42.74,64.73-51.08,93-12.47-62.59-36.93-107.51-65.27-135.48s-61.58-38.19-89.73-34.68a69,69,0,0,0-25.92,9.14c-7.44,4.27-16,11.94-23.68,20.69-15.46,17.48-29,40.11-40.29,63.23-22.65,46.24-36.39,94.31-39.84,106.51-34.23,121-10.52,220.52,6,269.33-20.05-36.7-88-161-150.49-141.51-36.14,11.26-60.74,68-75.58,133.89-14.8,65.7-19.93,141.1-19.36,188a642.3,642.3,0,0,0,17.39,141.18c21.89,91.46,57.09,150.1,64.57,162.57a479,479,0,0,0,40.76,58.14A650.88,650.88,0,0,0,3850,3959Z" transform="translate(2062.42 -100.11)"/><path class="cls-21" d="M3717.57,4062.07s9.11-16.33,24.16-45.2c7.52-14.43,16.57-31.95,27.35-51.73s23.94-41.62,38.23-65.74c57.12-96.4,138.3-222.88,226.89-347.81s182.85-249.23,257.83-347c37.56-49,69-92.06,94.3-124s43.88-52.93,50.74-61.61" transform="translate(2062.42 -100.11)"/><path class="cls-21" d="M4138.05,3408.84c-26-121-49.49-243.32-72.14-365.82" transform="translate(2062.42 -100.11)"/><path class="cls-21" d="M4109.54,3451.8c120.87-11.1,241.19-19.29,361.38-26.41" transform="translate(2062.42 -100.11)"/><path class="cls-21" d="M3871.63,3786.23c-33.55-111.83-62.61-226.86-88.91-342.91" transform="translate(2062.42 -100.11)"/><path class="cls-21" d="M3853.15,3824.63c127.5-21.93,253.64-37.07,379.54-48.61" transform="translate(2062.42 -100.11)"/><path class="cls-15" d="M3692.63,4069c4.18-11.62,12.51-21.42,19.39-29.86a341.71,341.71,0,0,0,25.86-38.7c7.71-13.19,14.56-27,22-38.86a625.59,625.59,0,0,1,45.23-65.28c30.42-38.24,60.56-65.69,85.49-80.87,39.18-23.88,79.09-37.47,114.61-55.12,35.58-18,66.49-38.3,88.65-81.08,6.55-12.48,32.64-63.46,13.37-102.18-10.07-20.06-26.47-25.29-97.56-56.69-86.29-37.8-103.49-48.1-106.69-65.54-3.9-21.32,15.19-42.39,29.09-58.08,33.19-37.64,59.74-30.21,90.24-70.54,8.84-11.68,25.47-34.38,19.45-55.47-6.29-21.66-29.92-19.64-34.7-35.4-4.58-15.18,13.66-29.7,37.06-51s51.95-49.46,67.66-89.34c18.27-46.82,19.53-107.58-9.33-127.92-18.6-13.3-44.67-7-69.75-.85-77.81,18.85-103.34,71.9-143.3,59.28-2.89-.91-21.43-7.07-26.74-22.2-9-25.77,31.16-47.36,48.82-103.82,2.39-7.42,6.27-19.75,7.75-31.91,1.4-12.55.5-23.54-7.33-32.45-8.28-10.06-19.9-7.89-31.87-6s-24.3,3.57-34.08-5.2c-17-14.55-4.91-41.58-18.15-87.45a235.19,235.19,0,0,0-17.53-43.76c-10.3-19.13-24.55-38.18-43.94-43.06-13.49-3.31-29.18.64-43.72,9.84s-27.73,23.51-36.26,39.27c-22,40.87-11.25,83.84-3.8,124.44,1,5.41,1.73,9.63,2.57,15.84q1.1,10.26,2.21,20.73c1.41,13.94,2.59,28.14,3.08,42.55,1,28.81-.72,58.48-8.89,88.68-5.22,19.26-13,38.33-30.35,48.57-29.62,17.45-59-6.8-87.61,2.28-20.28,6.39-38.65,27.16-50.33,52s-16.69,53.83-10.14,78.42c8.51,32.28,34.43,47.74,64.35,67.53s63.77,43.85,86.35,94.48c4.48,9.62,28.38,67.25,7.29,84.53-19.65,15.92-55.94-21.46-111.3-15.14-43.08,4.87-91.38,34.09-103.81,71.72-4.53,13.79-3.89,27.55,9.37,53.53s39,64.16,83.85,129.07c89.14,132.07,107.48,145.47,121.43,192.16a267.5,267.5,0,0,1,11.06,75.46c.06,7.67-.18,15.7-.77,24.09-.55,8-1.66,18.11-2.66,24.69a115,115,0,0,1-17.05,45.41q-2.89,4.1-6,8.49c-2.61,4.45-5.35,9.43-7.74,14.41,11.47-.81,19.06,6.56,27.28,13.47S3682,4069.69,3692.63,4069Z" transform="translate(2062.42 -100.11)"/><path class="cls-16" d="M3667.3,4041.26s.62-1.4,1.88-4.29c1.05-2.17,2.65-5.45,4.82-9.91,4.65-9.45,10.94-25,15.58-46,4.71-23.75,10.43-52.65,16.85-85,12.88-66,28.17-146.21,43-227,15.2-80.62,28.43-162.27,36.49-231.35s11.43-125.44,9.55-155c-2-32.48-5.16-80.84-10.17-134.89s-11.7-114-17.6-170.17c-2.79-28.19-5.48-55.36-7.94-80.27-2.06-24.85-3.94-47.44-5.52-66.51-1.65-17.57-3.92-32.1-5.56-42.24s-2.73-15.86-2.73-15.86" transform="translate(2062.42 -100.11)"/><path class="cls-16" d="M3795.48,3282.7c-61.4-53.8-124.19-103.95-188-152.18" transform="translate(2062.42 -100.11)"/><path class="cls-16" d="M3792.41,3235.56c76.53-50.17,151.66-105.36,226-160.45" transform="translate(2062.42 -100.11)"/><path class="cls-16" d="M3738.83,3726.38c-57.8-68.64-115-135.69-174.06-200.4" transform="translate(2062.42 -100.11)"/><path class="cls-16" d="M3746.15,3686.8c82.88-24.21,166-49.23,248.74-75.78" transform="translate(2062.42 -100.11)"/><path class="cls-16" d="M3792.47,3373.16q77.88-35.89,155-75.1" transform="translate(2062.42 -100.11)"/><path class="cls-22" d="M3614,4055.31c-.32-14.71-6.72-267.18-53.88-367.76-7.81-16.65-18.48-39.41-42.21-58.78-31.38-25.61-51.49-17.47-94.79-42-36-20.4-77.16-57.22-69.91-75.86,4.73-12.15,30.23-17.17,50.17-12.45,35.82,8.49,37.23,44.52,76.57,56,17.17,5,41.26,5.2,48.12-6.29s-5.84-30.47-10.18-37c-17.84-26.73-42.17-38-87.79-57.78-63.92-27.69-85.63-35.61-116.76-56.78-45.94-31.24-46.27-46.34-45.77-51.57,1.68-17.68,23.48-34.77,42.86-34,11.72.48,17,7.28,56.42,46.54,15.42,15.35,29.66,29.29,50.69,44.24,23.65,16.81,35.57,20.45,44.25,16.41a21.79,21.79,0,0,0,11.29-14.07c7.88-32.38-74.6-81.64-102.18-98.11-29.55-17.65-49.46-25.94-80.36-51.48-37.56-31.06-39.33-44.59-37.52-52.25,2.73-11.54,16-19.72,27.28-21.63,8.06-1.35,21.34-.56,56.37,29.25a428.9,428.9,0,0,1,46.75,46.65c33.62,38.86,42.54,58.55,58.7,57.42,7.61-.54,17.67-5.74,21-14.19,15-38.51-112.63-139.82-180.11-187.15-28-19.66-58.08-38.7-56.4-63.14,1.32-19.29,22.15-38.25,42.4-39.48,25.91-1.57,44.86,26.24,57.68,45.06,18.69,27.42,12.84,36.47,35.21,74.57,24.21,41.23,40.49,46.71,47.57,48.31,9.64,2.18,27.38,2.87,34.71-7,3.46-4.67,8.42-16.86-27.39-80.42-31.84-56.5-46.84-66.54-47.2-94-.32-25.23,11.85-54.89,28.48-57.35,15.68-2.31,32.63,20,40.34,36.11,12.4,26,2.42,39.4,12.41,91.68,5.53,29,11,37.42,18.15,39.66,11,3.45,23.73-8.46,27.06-11.57,34.8-32.52,8.63-77.18,38.7-134.64,7.09-13.55,21.9-41.85,52.49-51.38,25.28-7.88,61.69-3,79.34,22.51s8.37,60.48-4.41,80.62c-19.6,30.85-44,22.11-97.39,60.61-21,15.11-66.87,48.18-61.1,81.15.34,2,3.05,17.47,14.29,22.34,22.05,9.55,45.86-35.33,105.86-58.55,15.68-6.07,56.69-21.93,72.95-4.64,12.2,13,8.07,42-6.22,58.63-9.63,11.2-19.69,11.92-65.87,23.43-56.34,14-67.65,19.51-77.9,28.56-14.77,13.06-30.6,36.43-23.51,50.37,6.56,12.93,30.26,12.77,50.83,12.41,56.84-1,71.73-22.81,120-21,15,.57,50.81,1.93,60,22.72,5.73,13-.16,30.74-10.46,41-19,18.86-53.17,12.56-83.83,6.92-28.18-5.19-30.13-10.55-59.31-14.48-28.56-3.85-48.53-6.25-61.73,6.48-10.8,10.41-16.66,30.54-9,42.25,7.44,11.3,23.66,8.9,89.21,7.86,13.25-.22,34.22.06,76.15.63,57.13.76,71,2.1,78.55,12.89,8.45,12,6.65,32.41-3.47,41.79-3.89,3.62-10.74,7.19-42.6,3.52-29.8-3.44-33.12-7.64-56.22-10.58-35.11-4.47-56.49,1.54-67.34,5.56-11.13,4.12-23.81,8.8-26.13,18.76-2.82,12.1,10.9,26.74,23.57,34,20.19,11.62,35.28,3.17,93.79-3.59,60.77-7,75.82-2.91,86.23,5.33,1.5,1.19,19.35,15.73,16.85,33.2-2.28,15.92-20,24.59-28.35,28.63-29.89,14.57-63,7.43-74.33,4.75-22.18-5.24-30.73-13.54-50.72-11-5.8.73-19.48,2.45-29.44,12.12-11.37,11-14.64,29.24-10.35,59,7,48.74,27.06,77.55,40.57,106,14.91,31.35,18.91,68.13,26.91,141.68a992,992,0,0,1,2,192.16Z" transform="translate(2062.42 -100.11)"/><path class="cls-23" d="M-537.63,3972.91a487.37,487.37,0,0,1-153.68-14.79,461.67,461.67,0,0,1-63.89-21.61c-47-20-154.72-71.87-150-121.3,4.49-47.12,109.61-65.61,123-67.34-33.26-1.13-89.6-7.14-150.86-38.5-11.34-5.8-44.55-22.69-74.43-45.47-14.93-11.38-29.06-24.27-39.13-38.1a85.28,85.28,0,0,1-11.66-21.33,62.49,62.49,0,0,1-3.67-23c.92-42.42,57.68-72.76,130.5-77.26a421.65,421.65,0,0,1-30.91-39.39,457.58,457.58,0,0,1-31.78-53.76c-2.49-5-8-16-14.4-29.74s-13.54-30.1-20.73-47.11c-14.59-34.53-31.32-76.5-13.41-102.72,10.93-16,30.72-22.82,50.71-25.24s40.63.36,51.79,2.25c17.16,2.92,34.25,9.38,49.37,17.61a219,219,0,0,1,39.11,27.42c22.06,19.28,35.77,38.06,43.42,48.51,25.83,35.3,30.41,46,36.34,66.15,8.87-44.52,26.28-76.48,46.44-96.38s43.81-27.17,63.84-24.68a49.25,49.25,0,0,1,18.44,6.51c5.29,3,11.34,8.5,16.84,14.72,11,12.43,20.62,28.53,28.67,45,16.11,32.9,25.89,67.1,28.34,75.78a323.77,323.77,0,0,1-4.23,191.62c14.26-26.11,62.58-114.54,107.06-100.68,25.71,8,43.22,48.39,53.77,95.26s14.18,100.38,13.77,133.76a456.11,456.11,0,0,1-12.37,100.45c-15.57,65.06-40.62,106.78-45.94,115.65a341.09,341.09,0,0,1-29,41.37A463.66,463.66,0,0,1-537.63,3972.91Z" transform="translate(2062.42 -100.11)"/><path class="cls-24" d="M-443.43,4046.21s-6.48-11.62-17.18-32.16c-5.35-10.27-11.79-22.73-19.46-36.8s-17-29.62-27.2-46.78c-40.64-68.58-98.39-158.56-161.42-247.45s-130.09-177.31-183.44-246.87c-26.72-34.83-49.1-65.49-67.08-88.18s-31.22-37.66-36.1-43.83" transform="translate(2062.42 -100.11)"/><path class="cls-24" d="M-742.57,3581.47c18.46-86.07,35.21-173.11,51.32-260.27" transform="translate(2062.42 -100.11)"/><path class="cls-24" d="M-722.29,3612c-86-7.9-171.6-13.72-257.11-18.8" transform="translate(2062.42 -100.11)"/><path class="cls-24" d="M-553,3850c23.87-79.55,44.54-161.39,63.25-243.95" transform="translate(2062.42 -100.11)"/><path class="cls-24" d="M-539.88,3877.28c-90.71-15.61-180.45-26.37-270-34.58" transform="translate(2062.42 -100.11)"/><path class="cls-15" d="M-400.29,4031.28c-19.54-36.93-47.07-65.32-70.38-87.23l-31.91-29.41-27.33-26.71c-41.33-39.77-85.27-80-124.8-121.2-41-42.28-85.39-92.67-139.59-147.58A2386.34,2386.34,0,0,0-971.17,3458.8c-216-177.14-532.25-373.28-574.28-325.49-42,48,190.59,330.57,394.51,527.38,58.34,56.36,117.41,108.35,173.4,154.43,56.43,46.91,115.37,93.17,176.81,130.22,61.84,37.3,120.19,61.54,173.88,82.55,56.84,24.06,105.14,29,143.73,58.53Z" transform="translate(2062.42 -100.11)"/><path class="cls-16" d="M-446.89,4054.12c-23.54-28.88-51.12-46.73-75.43-61.59l-35-20.75-8-5-8.63-5.55-17.22-11.08c-45.73-29.52-90.8-59-132.91-91.69-42.28-32.72-82.59-69.24-122.8-106.23-40.08-37.22-80.76-74.1-121.49-110.59-162.91-146.27-328.24-289.37-493.88-432.45" transform="translate(2062.42 -100.11)"/><line class="cls-16" x1="818.01" y1="3297.88" x2="724.89" y2="3302.41"/><line class="cls-16" x1="876.48" y1="3348.92" x2="893.06" y2="3250.88"/><line class="cls-16" x1="1003.16" y1="3460.48" x2="916.03" y2="3484.79"/><line class="cls-16" x1="1094.06" y1="3541.59" x2="1099.55" y2="3427.1"/><path class="cls-16" d="M-867.65,3733.1c-38.72,6.54-77.1,13.52-115.54,20.71" transform="translate(2062.42 -100.11)"/><path class="cls-16" d="M-702.51,3874.82c-3.41-28.11-5.45-55.92-6.74-83.66" transform="translate(2062.42 -100.11)"/><path class="cls-15" d="M1576.06,3975.5a227.42,227.42,0,0,1,6-75.86c7-28.32,16.68-51.9,26-72.28s19.22-38.56,26.32-53.09c7.2-14.73,53.25-107.69,57.39-115.7l3.14-6s9.08-16.1,11.73-20.73c21.11-36.75,44.49-72.19,68.48-106.5s48.92-67.51,73-99.78c11.55-15.47,25.44-33.42,39.13-50.7s27.93-34.88,42.47-52.43c58.16-70.19,122.38-141.53,193.38-212.19,29.71-29.56,61.09-58.28,94.38-88.37,33.11-29.93,67.87-59.91,103.61-88.83s72.49-56.47,109.17-81.83c37.2-25.72,73-45.93,107.37-65.17,137.14-76.75,247.76-117.87,275.75-86.21,27.72,31.36-26.5,132.4-118.18,254-11.47,15.21-197.74,260.69-225.26,295.64-27.33,34.71-56.69,70-83.51,102.14a2652.61,2652.61,0,0,1-190.07,204c-32,31-63,59.69-96.42,89.88-32.47,29.28-64.17,54.92-94.38,79.23-29.47,23.72-58.07,46.86-86,69.13-6.6,5.27-13.92,11.82-20.92,17.79s-48.66,41-62.24,52-26.73,21.77-40.2,31.73c-13.19,9.76-25.67,18.54-37.13,27.72s-22,18.57-31.14,29.23c-9.24,10.85-16.51,23.44-20.46,36.51Z" transform="translate(2062.42 -100.11)"/><path class="cls-25" d="M1643.86,3974.33c2.36-22,9.12-42.66,19.4-63.2,9.87-19.71,21.13-35.64,32.22-50.35s22.12-27,32-39.79l92-115.7c21.55-26.13,43.81-51.11,66.19-75.64,0,0,491.8-530.48,537.48-577.2s92.12-92.13,140.33-134.66l149.92-127.58" transform="translate(2062.42 -100.11)"/><path class="cls-25" d="M2456.66,3018.56c39.25.89,78.33,2.62,116.87,5.29" transform="translate(2062.42 -100.11)"/><path class="cls-25" d="M2391.81,3084.77c-12.91-40.4-25.48-81-37.41-122" transform="translate(2062.42 -100.11)"/><line class="cls-25" x1="4315.04" y1="3132.05" x2="4429.12" y2="3156.78"/><line class="cls-25" x1="4215.88" y1="3239.59" x2="4187.76" y2="3096.67"/><line class="cls-25" x1="4105.13" y1="3359.72" x2="4255.3" y2="3378.4"/><path class="cls-25" d="M1863,3654.69c-4.28-36.11-7.82-72.5-11.43-108.63" transform="translate(2062.42 -100.11)"/><path class="cls-15" d="M1531.83,4039.38c-2.69-3.26-5.28-5.22-10.08-13.63-2.31-4.05-5.22-9.29-8.33-15.89-1.67-3.56-3.33-7.14-4.94-10.77s-3.11-7.3-4.68-11c-11.24-26.32-22.72-54.17-34.1-83.56-5.36-13.84-10.84-27.92-16.31-42.3-4.65-12.22-9.87-24.8-15.09-37.5-10.51-25.58-22.61-52-35.4-79.61-25.57-55.26-55.71-115-88-180.89-8.14-16.61-82.67-173.76-99.71-210.75-57.47-124.81-125.45-276.39-170.14-404.24-11.63-33.29-19.25-63.31-25.92-90.38-6.55-26.63-12.43-51-17.62-72.49-5.14-21.29-6.63-39.19-3.87-52.12s9.05-21.16,17-25.39,17.27-5.16,28.17-3.5,24.18,5.53,43.08,17.94c21.27,13.95,43.55,34.39,64.86,55.8s42.13,43.94,61.6,64.22c91.14,94.89,196.25,230.68,273.36,365.45,22,38.52,42.16,77.4,59.89,116.27q25.74,56.42,46.72,113.44c27.84,75.83,48.3,151.94,59.54,225.05a891,891,0,0,1,9.86,107c.55,17.24.4,34.21-.17,50.76-.55,16.13-1.38,30.22-2.26,45.08q-2.58,43.88-6.34,84.84c-2.33,25.65-1.28,54.56-8.58,78.14Z" transform="translate(2062.42 -100.11)"/><path class="cls-16" d="M1589.57,4030.84c.17-8.79-1.4-19.2-4.26-32.56l-4.64-21.61c-1.59-7.76-2.53-14.39-3.83-21.64,0,0-25.85-152.86-28.59-166.23-5.49-26.75-12.31-53.39-19.86-80-30.23-106.46-75.31-210.34-122.56-312.91s-101.64-202.54-158.22-300.86c-28.3-49.18-115.23-195.53-128.22-218.91-13.33-24-26.63-49.24-41.9-75" transform="translate(2062.42 -100.11)"/><line class="cls-16" x1="3289.26" y1="2959.07" x2="3316.56" y2="2860.85"/><path class="cls-16" d="M1267,3128.94c-36.5.55-73,1.48-109.35,2.56" transform="translate(2062.42 -100.11)"/><path class="cls-16" d="M1350.51,3282.75c17.67-28.66,34.83-57.43,52-86.62" transform="translate(2062.42 -100.11)"/><path class="cls-16" d="M1405.83,3395.92c-40.8-8-81.34-14.92-121.93-21" transform="translate(2062.42 -100.11)"/><path class="cls-16" d="M1462.33,3524.07c23-36.7,45.19-74.09,67-111.89" transform="translate(2062.42 -100.11)"/><path class="cls-16" d="M1535.79,3735.8c-27.77-13.1-55.49-25-83.46-35.88" transform="translate(2062.42 -100.11)"/><path class="cls-15" d="M1606.82,4068.15a87.44,87.44,0,0,1-9.48-.75c-3.4-.57-5.84-.61-10.31-1.88-3.91-1.1-8.48-2.35-11.92-3.58l-10.19-3.85a280.78,280.78,0,0,1-31.9-16c-9.29-5.33-17.71-10.71-25.76-15.94s-15.61-10.29-21.65-13.92c-1.58-1-2.55-1.34-3.84-2.06-.47-.19-.58-.05-.86-.11l-.25,0a3.75,3.75,0,0,1,.4-.58l6.53-9.33c2.07-2.89-13.78,19.18-7.16,9.87,0,0-234.92-129.79-255.2-141.44q-29.26-16.82-60.6-35c-68.37-39.74-154.41-81.92-225.75-116.31-71.16-34.3-125.48-63.39-122.2-85.35,3.15-21,63.24-34.45,147.75-31.21,42.16,1.61,90.27,7.76,139.1,18.92s98.26,27.64,142.49,47.9a764.46,764.46,0,0,1,70.79,37.19c22.07,13,43,26.73,62.71,40.83A849.12,849.12,0,0,1,1484.3,3834c15.21,15.1,29.33,30.28,42.36,45.35,6.53,7.54,12.85,15,18.79,22.5,5.24,6.65,14,16.85,18.63,24.42,9.71,15.94,17.63,30.17,26.34,43.21,8.54,12.8,16.83,25.55,30.36,31.88Z" transform="translate(2062.42 -100.11)"/><path class="cls-26" d="M1609.91,4033.13c-2.77-.66-5.47-1.64-8.18-2.47-3.06-1.23-6.16-2.6-9.17-4a132.46,132.46,0,0,1-14.66-8.89,227.94,227.94,0,0,1-22.81-18.72c-13.4-12.38-25.65-25.7-36.17-36.12-2-2-5.34-4.79-8.6-7.5l-29.2-24c-13.14-10.47-26.4-20.85-39.87-31a1819.57,1819.57,0,0,0-169.07-112.62c-58.57-34.53-120.48-64.78-185.29-88.53S955,3657.24,887.13,3643.09" transform="translate(2062.42 -100.11)"/><path class="cls-26" d="M1063.11,3690.87c-8.77-18.5-18-37.14-27.85-55.47" transform="translate(2062.42 -100.11)"/><path class="cls-26" d="M1109.05,3707.77c-17,14.24-33.43,28.43-49.48,43.32" transform="translate(2062.42 -100.11)"/><path class="cls-26" d="M1205.68,3751.19c-1.51-20.05-3.38-40.58-5.86-60.74" transform="translate(2062.42 -100.11)"/><path class="cls-26" d="M1272.18,3787.86c-22.85,10.19-45.53,20.5-67.38,31.72" transform="translate(2062.42 -100.11)"/><path class="cls-26" d="M1343.92,3832.21q-1.59-39.06-4.73-78.47" transform="translate(2062.42 -100.11)"/><path class="cls-26" d="M1454.84,3910.83q-27.28,5.72-54,12.29" transform="translate(2062.42 -100.11)"/><path class="cls-22" d="M1581.25,3998.82c3-12.75,8.24-25.73,14.5-38.48,6-12.31,15.46-26.79,21.92-36.92,6.65-10.41,13.15-20,11.47-22.08,6.86-10.64,14.2-21.11,21.9-31.29,30.76-40.65,67.35-75.9,98.34-103.44a641.28,641.28,0,0,1,125-87.47c12.67-6.77,26.88-13.72,40.29-19.5,12.93-5.58,26.53-10.93,40.68-15.94a591.15,591.15,0,0,1,92.57-24.67,529.17,529.17,0,0,1,89.73-8.51,462.51,462.51,0,0,1,47.52,1.95c3.88.37,8.17.68,11.65,1.21l10,1.75c6.68,1.17,13.27,2.48,19.79,3.88a744.88,744.88,0,0,1,142.38,46c41.89,18.36,78,38.38,105.17,58.78s45.21,41.36,48,63.2c2.71,21.53-10.28,43.36-34.77,63.54s-60.17,38.27-99.79,53.34-83.06,27.37-123.74,37.66l-15.16,3.77-149.91,44c-5.29,1.47-10.65,2.85-15.17,3.9-9.86,2.27-19.63,4.66-29.37,7-40.33,9.7-83.49,20.32-128.48,29.32-44.75,8.94-83.2,10.87-120.43,16.08-4.65.65-20.73,3.08-20.73,3.08a30.48,30.48,0,0,0-7.56,1.82c-11.23,3.43-20.11,4.23-29.21,5.56-17.24,2.53-36,6.12-49.26,14.78Z" transform="translate(2062.42 -100.11)"/><path class="cls-27" d="M1643.45,4032.28c6.12-9.84,14.17-18.61,22.64-26.62a243.57,243.57,0,0,1,25.49-20.85c3.82-2.75,7.69-5.43,10.55-7.27,1.72-.73,6.94-5,10.62-7.73,8-5.93,16.15-11.64,24.32-16.94,32.72-21.25,65.72-37.75,97.39-53.48,63.42-31.53,129.51-63.07,197.18-84.64,67.83-21.63,136.4-35.53,203.79-33.85,69.48,1.73,139.12,6.56,211.59,9.27" transform="translate(2062.42 -100.11)"/><path class="cls-27" d="M2260.83,3781.41c17.17,29.78,33.69,59.75,50,89.86" transform="translate(2062.42 -100.11)"/><path class="cls-27" d="M2212,3780.82c5.11-38.51,12.79-77,20.39-115.4" transform="translate(2062.42 -100.11)"/><path class="cls-27" d="M2107.29,3793.83c21.91,30.43,42.54,61.56,61.5,93.5" transform="translate(2062.42 -100.11)"/><path class="cls-27" d="M2031.64,3814.75a1179.48,1179.48,0,0,1-.72-126.64" transform="translate(2062.42 -100.11)"/><path class="cls-27" d="M1948.4,3845.67c35.66,30.85,70,62.82,102.37,96.32" transform="translate(2062.42 -100.11)"/><path class="cls-27" d="M1818.27,3907.42c-3.62-29.66-8.15-58.64-11.6-88.4" transform="translate(2062.42 -100.11)"/><path class="cls-22" d="M1529.5,4075.22c-32.4-121.59-46.44-267.21-34.11-431.21,6.16-82,18.9-168.76,42.62-260.17a2025.71,2025.71,0,0,1,89.6-265.78c31.32-75.59,69.46-155.17,110.28-231.21,10.2-19,20.48-37.87,31-56.3q16-28,32-55.25c22.25-38.07,46.11-71.8,69.42-102,46.61-60.36,90.85-107.41,127.07-140.2s65.06-50.37,83.93-42.64c18.5,7.56,26.2,41.13,23.39,91.08S2088,2696.61,2072,2764.63c-8,34-16,68.71-23.27,103-8.4,39.51-18.36,80.44-28.76,121.46-20.83,82.11-44.39,165.13-68.46,241.83q-20.71,66-42.64,128.09c-7.32,20.63-175.6,471-197.5,532.16s-41.38,118.21-56.13,171.75Z" transform="translate(2062.42 -100.11)"/><path class="cls-28" d="M1593.86,4062.76c-.76-67.4,4.26-132.49,12.28-196.71s18.87-127.44,31.8-190.07,27.8-124.63,45.21-185.88S1720.59,3368.81,1741,3309c40.87-119.64,85.58-237.57,131.91-354.83l52.73-131.48q8.76-21.16,18.35-42.11c25.48-55.92,54.57-110.95,83.42-167.86" transform="translate(2062.42 -100.11)"/><line class="cls-28" x1="3952.35" y1="2811.2" x2="4057.6" y2="2768.74"/><line class="cls-28" x1="3919.5" y1="2894.4" x2="3840.95" y2="2800.46"/><line class="cls-28" x1="3850.48" y1="3076.38" x2="3960.89" y2="3055.59"/><path class="cls-28" d="M1741,3309q-40.08-56.89-79.29-115.07" transform="translate(2062.42 -100.11)"/><path class="cls-28" d="M1692.31,3458.51c45.94-15.73,91.88-29.82,138-44" transform="translate(2062.42 -100.11)"/><path class="cls-28" d="M1631.55,3707.79c-21.24-27.64-42.26-55.93-62.62-84.79" transform="translate(2062.42 -100.11)"/><path class="cls-4" d="M3674.5,704.64h83.8a3.75,3.75,0,0,1,3.75,3.75V3965.8a0,0,0,0,1,0,0h-91.31a0,0,0,0,1,0,0V708.39A3.75,3.75,0,0,1,3674.5,704.64Z"/><path class="cls-29" d="M1970.25,2675.05H1161a56.82,56.82,0,0,1-56.82-56.82V2361.77A56.82,56.82,0,0,1,1161,2305h809.67a56.83,56.83,0,0,1,38.23,14.78L2148,2446.32a56.81,56.81,0,0,1,.48,83.63L2009,2659.83A56.82,56.82,0,0,1,1970.25,2675.05Z" transform="translate(2062.42 -100.11)"/><path class="cls-23 lap_location" d="M1986.34,2689.67H1177.05a56.82,56.82,0,0,1-56.82-56.82V2376.39a56.82,56.82,0,0,1,56.82-56.82h809.66a56.79,56.79,0,0,1,38.23,14.79L2164.13,2461a56.81,56.81,0,0,1,.48,83.63l-139.56,129.87A56.86,56.86,0,0,1,1986.34,2689.67Z" transform="translate(2062.42 -100.11)"/><path class="cls-30" d="M2083.5,1789.75l-716.76,375.78a56.83,56.83,0,0,1-76.71-23.94L1171,1914.45a56.83,56.83,0,0,1,23.94-76.71l717.09-376a56.86,56.86,0,0,1,40.73-4.66l182.05,47.49a56.81,56.81,0,0,1,39.25,73.84l-63.3,179.83A56.82,56.82,0,0,1,2083.5,1789.75Z" transform="translate(2062.42 -100.11)"/><path class="cls-31 lap_location" d="M2112.29,1789.75l-716.76,375.78a56.82,56.82,0,0,1-76.7-23.94l-119.09-227.14a56.83,56.83,0,0,1,23.94-76.71l717.1-376a56.83,56.83,0,0,1,40.72-4.66l182.05,47.49a56.82,56.82,0,0,1,39.26,73.84l-63.3,179.83A56.84,56.84,0,0,1,2112.29,1789.75Z" transform="translate(2062.42 -100.11)"/><path class="cls-1" d="M1297.9,1109.14l655.57-192.33A48,48,0,0,1,2013,949.33L2074,1157.08a48,48,0,0,1-32.52,59.53L1385.55,1409a48,48,0,0,1-34.48-2.89l-142.84-69.47A48,48,0,0,1,1188,1269l82.19-138.37A47.91,47.91,0,0,1,1297.9,1109.14Z" transform="translate(2062.42 -100.11)"/><path class="cls-15 lap_location" d="M1320.81,1120l655.57-192.33a48,48,0,0,1,59.53,32.52l61,207.75a48,48,0,0,1-32.53,59.53l-655.87,192.42A48,48,0,0,1,1374,1417l-142.83-69.47a48,48,0,0,1-20.26-67.63l82.19-138.37A47.91,47.91,0,0,1,1320.81,1120Z" transform="translate(2062.42 -100.11)"/><circle class="cls-1" cx="3713.89" cy="1073.71" r="27.23"/><path class="cls-1" d="M1680.92,1840.59a26.93,26.93,0,1,0-26.93,26.93A26.93,26.93,0,0,0,1680.92,1840.59Z" transform="translate(2062.42 -100.11)"/><path class="cls-1" d="M1678.7,2504.62a27.23,27.23,0,1,0-27.22,27.23A27.22,27.22,0,0,0,1678.7,2504.62Z" transform="translate(2062.42 -100.11)"/><path class="cls-23" d="M3026.68,3991.5a405.55,405.55,0,0,0,127.87-12.3,384,384,0,0,0,53.16-18c39.15-16.66,128.74-59.81,124.81-100.93-3.73-39.21-91.2-54.6-102.37-56a295.86,295.86,0,0,0,125.53-32c9.43-4.83,37.07-18.88,61.93-37.83,12.43-9.48,24.18-20.2,32.55-31.7a70.68,70.68,0,0,0,9.71-17.75,52.15,52.15,0,0,0,3.06-19.12c-.78-35.3-48-60.54-108.59-64.28a351.38,351.38,0,0,0,25.72-32.78A379,379,0,0,0,3406.5,3524c2.07-4.11,6.65-13.33,12-24.73s11.27-25.05,17.25-39.21c12.14-28.73,26.06-63.65,11.16-85.47-9.1-13.33-25.56-19-42.2-21s-33.8.3-43.09,1.88a134.55,134.55,0,0,0-41.08,14.65A181.38,181.38,0,0,0,3288,3393c-18.35,16.05-29.76,31.67-36.13,40.37-21.49,29.36-25.3,38.31-30.24,55-7.38-37.05-21.86-63.64-38.63-80.2s-36.46-22.61-53.13-20.53a41,41,0,0,0-15.34,5.41c-4.4,2.53-9.44,7.07-14,12.25-9.15,10.35-17.15,23.74-23.85,37.43-13.4,27.38-21.54,55.83-23.58,63.05a269.49,269.49,0,0,0,3.52,159.44c-11.86-21.72-52.07-95.3-89.08-83.77-21.4,6.67-36,40.26-44.75,79.26S2911,3744.23,2911.3,3772a379.48,379.48,0,0,0,10.29,83.58c13,54.14,33.8,88.86,38.22,96.24a285.42,285.42,0,0,0,24.13,34.42A386.49,386.49,0,0,0,3026.68,3991.5Z" transform="translate(2062.42 -100.11)"/><path class="cls-24" d="M2948.29,4052.49s5.39-9.66,14.3-26.75c4.45-8.55,9.81-18.92,16.19-30.63s14.17-24.64,22.63-38.92c33.82-57.06,81.87-131.94,134.32-205.89s108.24-147.54,152.63-205.42c22.23-29,40.86-54.49,55.82-73.38s26-31.33,30-36.47" transform="translate(2062.42 -100.11)"/><path class="cls-24" d="M3197.2,3665.79c-15.36-71.61-29.29-144-42.7-216.56" transform="translate(2062.42 -100.11)"/><path class="cls-24" d="M3180.33,3691.22c71.55-6.57,142.78-11.41,213.93-15.63" transform="translate(2062.42 -100.11)"/><path class="cls-24" d="M3039.49,3889.2c-19.86-66.2-37.06-134.3-52.63-203" transform="translate(2062.42 -100.11)"/><path class="cls-24" d="M3028.55,3911.93c75.48-13,150.15-21.94,224.68-28.77" transform="translate(2062.42 -100.11)"/><line class="cls-32" x1="1135.59" y1="3965.8" x2="5967.8" y2="3965.8"/><path class="cls-1" d="M533.93,914a30.88,30.88,0,0,1-30.72,27.25h-23.3a18.72,18.72,0,0,1-18.72-18.71v0q0-34.74,11.48-57.14t45.93-50.41q34.44-28,41.16-36.69A49,49,0,0,0,570.13,748q0-23-18.34-39.35t-49.44-16.38q-30,0-50.13,17.08-11.64,9.87-19.09,25.73a39.48,39.48,0,0,1-40.57,22.4h0a36,36,0,0,1-27.64-52.21q10.65-20.78,30.05-37.93,39.63-35,104.05-35,67.77,0,107.82,35.43t40,82.48q0,26-14.7,49.29t-62.87,63.29q-24.93,20.73-30.94,33.33Q535.29,902.53,533.93,914ZM497.51,1047.1a36,36,0,0,1-36-36v-6.61a36,36,0,0,1,36-36h6.6a36,36,0,0,1,36,36v6.61a36,36,0,0,1-36,36Z" transform="translate(2062.42 -100.11)"/><path class="cls-1" d="M326.42,3871.09l-37.22,35s6.57,53.63-5.47,66.76-33.93,31.74-25.17,56.92,24.08,36.11,24.08,36.11H423.82S449,4028.69,449,4017.75s-13.14-137.91-35-146.66S326.42,3871.09,326.42,3871.09Z" transform="translate(2062.42 -100.11)"/><g class="cls-33"><rect class="cls-34" x="2250.93" y="3951.94" width="329.8" height="27.73"/></g><path class="cls-1" d="M751.07,3930.19s-5.47,51.44,0,77.71,9.85,58,9.85,58h333.81s33.93-15.32,33.93-33.92-13.13-47.07-73.33-46c-65.67-32.84-148.85-106.17-148.85-106.17l-94.12,35Z" transform="translate(2062.42 -100.11)"/><g class="cls-35"><rect class="cls-34" x="2774.82" y="3945.37" width="416.26" height="35.02"/></g><path class="cls-36" d="M503.9,2866.36l162.9,370.76s-7.67,38.58,0,58.28,20.79,46,20.79,46-13.13,190.44,0,253.92,46,176.57,41.59,201,21.89,44.14,21.89,57.28v76.61h74.42l81-50.35-35-505.64s8.76-89.75,2.19-111.64S843,3155.3,843,3155.3,881,2743.78,776.61,2619,565,2544.59,565,2544.59Z" transform="translate(2062.42 -100.11)"/><path class="cls-2" d="M617,2724.08s-102.34,448.74-181.14,529.73c35,74.42-21.89,135.71-21.89,135.71l19.16,501.82s-10.4-11.5-56.37-9.31-87.56,24.08-87.56,24.08-85.37-348-28.45-549.42c6.56-186.06,10.94-464.06,4.38-507.84s-26.06-130.67-25.54-218.16,395.47-57.64,395.47-57.64Z" transform="translate(2062.42 -100.11)"/><g class="cls-37"><path class="cls-38" d="M282.34,2612.86l26.56,218.48-12,401S270.79,3372,270.45,3413.6c-1.84,221.06,6.12,330.88,38.45,496.34" transform="translate(2062.42 -100.11)"/><path class="cls-38" d="M307.46,2879.36s97.75-29.28,100.67-82.54,0-188.25,0-188.25" transform="translate(2062.42 -100.11)"/><path class="cls-39" d="M652.93,2664.75c0,1.41-103.07,7.05-110.81,8a935.76,935.76,0,0,1-169.18,4.54c-54.81-3.5-109.58-8.46-164.37-12.5v-41.59H652.93Z" transform="translate(2062.42 -100.11)"/></g><path class="cls-4" d="M360.1,1653.56l-95.7,120.52s27.72,592.48,0,645-42.32,81.72-33.57,99.23,21.89,64.21,14.59,77.35-5.83,35-5.83,35,176,39,280.66,6.66c127.1-39.3,271.61,0,271.61,0s-31.71-139.46-37.35-187.61-17.3-232-17.3-232l39.4-255.38-80.26-195.54L638.7,1698.2l-35.37-16.45-164.55-6.17Z" transform="translate(2062.42 -100.11)"/><path class="cls-1" d="M274.72,2339.41l-4.27,54.2S418.93,2375,477.74,2345.4s127.77-70.05,127.77-70.05l137.72,32.83-3.65-54-134.07-34.66L354.87,2329Z" transform="translate(2062.42 -100.11)"/><path class="cls-3" d="M380,1498.28s11.5,54.17,9.31,91.38-50.9,91.39-50.9,91.39,111.64,159.25,166.91,158.7S618.64,1701.3,617,1691.45s-45-18.61-45-18.61V1554l-140-119.7Z" transform="translate(2062.42 -100.11)"/><path class="cls-1" d="M594,1324.8s26.82-4.78,26.27-22.64-1.09-77.5-114.37-77.5-171.83,86.46-196.46,130.79-11.58,76.19,10.84,117.71c17.28,32,69.33,107,69.33,107l21.62-117.44,18.06-1.64,27.17,35,60.93-7.66-21.89-160.34Z" transform="translate(2062.42 -100.11)"/><path class="cls-3" d="M458.22,1486.79c0-25.09-15.42-45.43-34.44-45.43s-34.43,20.34-34.43,45.43,15.41,45.42,34.43,45.42S458.22,1511.87,458.22,1486.79Z" transform="translate(2062.42 -100.11)"/><polygon class="cls-3" points="2565.04 2208.08 2729.21 2121.62 2591.31 2057.04 2498.28 2132.56 2565.04 2208.08"/><g class="cls-40"><polygon class="cls-41" points="2565.04 2116.68 2666.83 2166.49 2709.51 2116.69 2533.85 2036.25 2565.04 2116.68"/></g><path class="cls-1" d="M737.94,1858.36s-50.35,98.5-43.78,141.18,21.59,95.22,21.59,95.22H611S470.89,2057.55,435.86,2063s-127,31.74-127,31.74L320.21,2132l157.53-20.79,102.59,32.24H715l61.66-10.35-5.84-187.15Z" transform="translate(2062.42 -100.11)"/><path class="cls-3" d="M628.49,2125.41S513.57,2098.05,465.41,2097s-145.2,8.76-145.2,8.76v79.89s156.15-8.75,182.42,9.85,119.66,58.74,119.66,58.74l65.3-29.19Z" transform="translate(2062.42 -100.11)"/><path class="cls-4" d="M617,1691.45s171.28,48.7,208.49,113.28,24.08,162,31.74,204.66,58,223.28,21.89,252.83-262.11,0-262.11,0V2119.94s75-12,126.4-9.85c-25.17-71.14-43.78-132.44-17.51-212.33S617,1691.45,617,1691.45Z" transform="translate(2062.42 -100.11)"/><path class="cls-1" d="M296.15,1891.19s55.68,34.43,68.57,109.7l12.89,75.27L269.5,2121V1907.61Z" transform="translate(2062.42 -100.11)"/><path class="cls-4" d="M320.21,1902.14c36.48,67.85,30.28,179.49,18.24,269.24,57.46-18.06,164.18,24.07,164.18,24.07v112.73s-125.87,77.71-244.07,41.59c-90.84-48.15-124.77-480.47-120.39-510s200.28-158.7,200.28-158.7S283.73,1834.28,320.21,1902.14Z" transform="translate(2062.42 -100.11)"/><g class="cls-42"><path class="cls-1" d="M353.24,2145.73l-14.79,25.65s18.52-2,62.39,11.49,127,42.68,127,42.68l-12-48.7-142.28-33.43Z" transform="translate(2062.42 -100.11)"/></g><path class="cls-41" d="M452.76,1554s25.3,45.8,38.56,53.59S572,1627.06,572,1627.06v44.14s-53.11-2.37-89.42-39C450.36,1599.65,452.76,1554,452.76,1554Z" transform="translate(2062.42 -100.11)"/><path class="cls-1" d="M457.79,1493.91s-19,90.28,18.72,114.91S553,1636.73,574,1634s68.38-23.53,68.38-54.17v-99.6l-147.53-7.12Z" transform="translate(2062.42 -100.11)"/><path class="cls-3" d="M606.64,1319.87c15.69,12.41,27.63,30,31.33,49.26,3.65,19,.67,57.74.67,57.74s32.93,43.68,34.39,53.9-39.19,5.15-39.19,5.15-30.89,55.41-62.26,50.3c-27.45-4.47-55.14-23.09-73.34-43.48-15.86-17.76-19.82-38.55-20.8-61.41-.86-20-4.53-39.47-5.39-59.46-.67-15.58-3.61-38.13,3.6-52.72,15.07-30.48,69.86-11,101-9.12C594.56,1311.12,597.78,1312.85,606.64,1319.87Z" transform="translate(2062.42 -100.11)"/><path class="cls-43" d="M308.9,1700.93S433.42,1891.19,510,1879.18c107.75-16.91,136.86-178.25,136.86-178.25" transform="translate(2062.42 -100.11)"/><path class="cls-41" d="M434.4,1462.89s-19.7-4.74-23.35,10.21,4.67,28.46,12.73,21.53-.4-8.33,0-15.29S444.62,1473.83,434.4,1462.89Z" transform="translate(2062.42 -100.11)"/></g></svg>